<?xml version="1.0" encoding="UTF-8" standalone="no"?>
<!-- Created with Inkscape (http://www.inkscape.org/) -->

<svg
   xmlns:dc="http://purl.org/dc/elements/1.1/"
   xmlns:cc="http://creativecommons.org/ns#"
   xmlns:rdf="http://www.w3.org/1999/02/22-rdf-syntax-ns#"
   xmlns:svg="http://www.w3.org/2000/svg"
   xmlns="http://www.w3.org/2000/svg"
   xmlns:sodipodi="http://sodipodi.sourceforge.net/DTD/sodipodi-0.dtd"
   xmlns:inkscape="http://www.inkscape.org/namespaces/inkscape"
   id="svg2"
   version="1.1"
   inkscape:version="0.91 r13725"
   xml:space="preserve"
   width="24.552"
   height="24.565374"
   viewBox="0 0 24.552 24.565374"
   sodipodi:docname="clock.svg"><metadata
     id="metadata8"><rdf:RDF><cc:Work
         rdf:about=""><dc:format>image/svg+xml</dc:format><dc:type
           rdf:resource="http://purl.org/dc/dcmitype/StillImage" /><dc:title></dc:title></cc:Work></rdf:RDF></metadata><defs
     id="defs6"><clipPath
       clipPathUnits="userSpaceOnUse"
       id="clipPath16"><path
         d="m 0,19.652 19.642,0 L 19.642,0 0,0 0,19.652 Z"
         id="path18"
         inkscape:connector-curvature="0" /></clipPath></defs><sodipodi:namedview
     pagecolor="#ffffff"
     bordercolor="#666666"
     borderopacity="1"
     objecttolerance="10"
     gridtolerance="10"
     guidetolerance="10"
     inkscape:pageopacity="0"
     inkscape:pageshadow="2"
     inkscape:window-width="1920"
     inkscape:window-height="1057"
     id="namedview4"
     showgrid="false"
     inkscape:zoom="9.6070183"
     inkscape:cx="1.1383091"
     inkscape:cy="12.282687"
     inkscape:window-x="1912"
     inkscape:window-y="-8"
     inkscape:window-maximized="1"
     inkscape:current-layer="g10" /><g
     id="g10"
     inkscape:groupmode="layer"
     inkscape:label="Vector Smart Object3"
     transform="matrix(1.25,0,0,-1.25,0,24.565375)"><g
       id="g12"><g
         id="g14"
         clip-path="url(#clipPath16)"><g
           id="g20"
           transform="translate(9.7451,1.1133)"><path
             d="m 0,0 c 4.854,-0.021 8.7,3.832 8.779,8.546 0.083,4.995 -3.932,8.813 -8.588,8.866 -4.876,0.055 -8.755,-3.86 -8.82,-8.58 C -8.695,4.034 -4.854,0.058 0,0 m 9.896,8.698 c 0,-5.4 -4.391,-9.813 -9.762,-9.811 -5.542,0.003 -9.913,4.374 -9.879,9.941 0.033,5.337 4.396,9.731 9.926,9.711 5.338,-0.02 9.716,-4.441 9.715,-9.841"
             style="fill:#1b5874;fill-opacity:1;fill-rule:evenodd;stroke:none"
             id="path22"
             inkscape:connector-curvature="0" /></g><g
           id="g24"
           transform="translate(10.0547,10.2148)"><path
             d="M 0,0 C 0.845,0.38 1.643,0.738 2.44,1.097 3.032,1.363 3.622,1.635 4.217,1.895 4.585,2.055 4.918,1.941 5.056,1.626 5.192,1.314 5.081,1.04 4.725,0.865 3.74,0.382 2.752,-0.094 1.766,-0.571 1.132,-0.879 0.498,-1.185 -0.136,-1.489 c -0.616,-0.296 -1.034,-0.042 -1.038,0.637 -0.013,1.925 -0.02,3.85 -0.028,5.774 -0.001,0.398 0.18,0.629 0.507,0.666 0.43,0.048 0.689,-0.184 0.693,-0.641 C 0.004,4.178 0,3.407 0,2.638 L 0,0 Z"
             style="fill:#1b5874;fill-opacity:1;fill-rule:evenodd;stroke:none"
             id="path26"
             inkscape:connector-curvature="0" /></g></g></g></g></svg>