<?xml version="1.0" encoding="UTF-8" standalone="no"?>
<!-- Created with Inkscape (http://www.inkscape.org/) -->

<svg
   xmlns:dc="http://purl.org/dc/elements/1.1/"
   xmlns:cc="http://creativecommons.org/ns#"
   xmlns:rdf="http://www.w3.org/1999/02/22-rdf-syntax-ns#"
   xmlns:svg="http://www.w3.org/2000/svg"
   xmlns="http://www.w3.org/2000/svg"
   xmlns:sodipodi="http://sodipodi.sourceforge.net/DTD/sodipodi-0.dtd"
   xmlns:inkscape="http://www.inkscape.org/namespaces/inkscape"
   id="svg2"
   version="1.1"
   inkscape:version="0.91 r13725"
   xml:space="preserve"
   width="227.50375"
   height="311.8425"
   viewBox="0 0 227.50375 311.8425"
   sodipodi:docname="login-icon.svg"><metadata
     id="metadata8"><rdf:RDF><cc:Work
         rdf:about=""><dc:format>image/svg+xml</dc:format><dc:type
           rdf:resource="http://purl.org/dc/dcmitype/StillImage" /><dc:title></dc:title></cc:Work></rdf:RDF></metadata><defs
     id="defs6"><clipPath
       clipPathUnits="userSpaceOnUse"
       id="clipPath16"><path
         d="m 0,249.474 182.003,0 L 182.003,0 0,0 0,249.474 Z"
         id="path18"
         inkscape:connector-curvature="0" /></clipPath></defs><sodipodi:namedview
     pagecolor="#ffffff"
     bordercolor="#666666"
     borderopacity="1"
     objecttolerance="10"
     gridtolerance="10"
     guidetolerance="10"
     inkscape:pageopacity="0"
     inkscape:pageshadow="2"
     inkscape:window-width="697"
     inkscape:window-height="480"
     id="namedview4"
     showgrid="false"
     inkscape:zoom="0.75679229"
     inkscape:cx="113.75188"
     inkscape:cy="155.92125"
     inkscape:window-x="0"
     inkscape:window-y="0"
     inkscape:window-maximized="0"
     inkscape:current-layer="g10" /><g
     id="g10"
     inkscape:groupmode="layer"
     inkscape:label="Vector Smart Object2"
     transform="matrix(1.25,0,0,-1.25,0,311.8425)"><g
       id="g12"><g
         id="g14"
         clip-path="url(#clipPath16)"><g
           id="g20"
           transform="translate(90.9849,33.7764)"><path
             d="m 0,0 c 4.331,0 8.662,-0.042 12.991,0.01 5.455,0.065 6.578,1.471 5.248,6.632 -2.279,8.839 -4.524,17.691 -6.993,26.479 -0.806,2.868 -0.479,4.711 1.962,6.793 5.288,4.512 7.509,10.568 6.362,17.461 -1.522,9.143 -8.358,15.722 -16.819,16.69 -9.118,1.045 -17.021,-3.313 -20.757,-11.446 -3.717,-8.093 -1.973,-16.773 5.166,-23.031 2.175,-1.906 2.38,-3.512 1.716,-5.957 C -13.56,24.657 -15.897,15.658 -18.22,6.655 -19.555,1.479 -18.442,0.077 -12.991,0.011 -8.661,-0.042 -4.33,0 0,0 m -0.29,-33.762 c -23.495,0 -46.989,-0.004 -70.484,0.002 -14.214,0.003 -20.177,5.89 -20.178,19.905 -0.001,34.659 -0.15,69.319 0.189,103.975 0.043,4.339 2.039,9.012 4.258,12.884 2.484,4.334 6.666,5.744 12.057,4.284 30.623,-8.292 61.912,-11.387 93.453,-8.913 17.661,1.385 35.195,4.949 52.644,8.274 11.218,2.138 18.847,-3.033 19.287,-14.628 0.165,-4.326 0.03,-8.664 0.03,-12.996 0.001,-31.493 0.009,-62.987 -0.004,-94.48 -0.005,-11.667 -6.506,-18.253 -18.267,-18.286 -24.328,-0.067 -48.656,-0.02 -72.985,-0.021"
             style="fill:rgb(27,88,116);fill-opacity:1;fill-rule:evenodd;stroke:none"
             id="path22"
             inkscape:connector-curvature="0" /></g><g
           id="g24"
           transform="translate(159.1318,153.541)"><path
             d="m 0,0 c -8.425,-1.68 -17.474,-3.483 -27.218,-5.426 0,11.826 0.07,22.782 -0.021,33.738 -0.079,9.623 -2.839,18.369 -9.218,25.743 -10.665,12.324 -27.178,16.7 -42.129,11.247 -15.588,-5.686 -25.171,-19.675 -25.443,-37.52 -0.167,-10.968 -0.031,-21.94 -0.031,-33.987 -9.075,1.718 -17.626,3.279 -26.133,5.049 -0.726,0.151 -1.685,1.703 -1.657,2.576 0.473,14.767 -0.768,29.897 2.06,44.218 5.466,27.675 31.323,50.955 65.363,50.28 C -31.59,95.267 -4.417,71.863 -0.281,40.438 1.417,27.541 0,14.234 0,0"
             style="fill:rgb(27,88,116);fill-opacity:1;fill-rule:evenodd;stroke:none"
             id="path26"
             inkscape:connector-curvature="0" /></g></g></g></g></svg>