<?xml version="1.0" encoding="UTF-8" standalone="no"?>
<!-- Created with Inkscape (http://www.inkscape.org/) -->

<svg
   xmlns:dc="http://purl.org/dc/elements/1.1/"
   xmlns:cc="http://creativecommons.org/ns#"
   xmlns:rdf="http://www.w3.org/1999/02/22-rdf-syntax-ns#"
   xmlns:svg="http://www.w3.org/2000/svg"
   xmlns="http://www.w3.org/2000/svg"
   xmlns:sodipodi="http://sodipodi.sourceforge.net/DTD/sodipodi-0.dtd"
   xmlns:inkscape="http://www.inkscape.org/namespaces/inkscape"
   id="svg2"
   version="1.1"
   inkscape:version="0.91 r13725"
   xml:space="preserve"
   width="684.40875"
   height="141.37375"
   viewBox="0 0 684.40875 141.37375"
   sodipodi:docname="logo.svg"><metadata
     id="metadata8"><rdf:RDF><cc:Work
         rdf:about=""><dc:format>image/svg+xml</dc:format><dc:type
           rdf:resource="http://purl.org/dc/dcmitype/StillImage" /><dc:title></dc:title></cc:Work></rdf:RDF></metadata><defs
     id="defs6"><linearGradient
       x1="0"
       y1="0"
       x2="1"
       y2="0"
       gradientUnits="userSpaceOnUse"
       gradientTransform="matrix(33.444012,25.746519,-25.746519,33.444012,34.650391,73.03125)"
       spreadMethod="pad"
       id="linearGradient24"><stop
         style="stop-opacity:1;stop-color:#23974f"
         offset="0"
         id="stop26" /><stop
         style="stop-opacity:1;stop-color:#90c84b"
         offset="0.50068725"
         id="stop28" /><stop
         style="stop-opacity:1;stop-color:#90c84b"
         offset="0.518717"
         id="stop30" /><stop
         style="stop-opacity:1;stop-color:#90c84b"
         offset="0.52021872"
         id="stop32" /><stop
         style="stop-opacity:1;stop-color:#22984f"
         offset="1"
         id="stop34" /></linearGradient><clipPath
       clipPathUnits="userSpaceOnUse"
       id="clipPath42"><path
         d="m 0,113.099 547.527,0 L 547.527,0 0,0 0,113.099 Z"
         id="path44"
         inkscape:connector-curvature="0" /></clipPath></defs><sodipodi:namedview
     pagecolor="#ffffff"
     bordercolor="#666666"
     borderopacity="1"
     objecttolerance="10"
     gridtolerance="10"
     guidetolerance="10"
     inkscape:pageopacity="0"
     inkscape:pageshadow="2"
     inkscape:window-width="1042"
     inkscape:window-height="570"
     id="namedview4"
     showgrid="false"
     inkscape:zoom="0.55522376"
     inkscape:cx="342.20438"
     inkscape:cy="70.686874"
     inkscape:window-x="458"
     inkscape:window-y="252"
     inkscape:window-maximized="0"
     inkscape:current-layer="g10" /><g
     id="g10"
     inkscape:groupmode="layer"
     inkscape:label="Vector Smart Object"
     transform="matrix(1.25,0,0,-1.25,0,141.37375)"><g
       id="g12"><g
         id="g14"><g
           id="g20"><g
             id="g22"><path
               d="m 53.384,82.104 c -2.088,-0.991 -5.986,-0.338 -5.986,-0.338 l 0,0 c 0,0 -1.016,0.121 -3.572,1.88 l 0,0 c -1.079,0.743 -7.583,7.814 -10.786,9.613 l 0,0 c -0.123,0.069 -0.597,-0.154 -0.5,-0.256 l 0,0 c 1.756,-1.859 7.557,-7.473 6.917,-8.156 l 0,0 c -0.513,-0.55 -7.337,4.822 -9.425,6.048 l 0,0 c -0.18,0.106 -0.57,-0.564 -0.429,-0.715 l 0,0 C 31.837,87.804 42.806,79.654 42.806,79.654 l 0,0 c 0,0 4.413,-2.882 2.695,-5.703 l 0,0 c -0.686,-1.127 -5.184,-0.742 -8.849,-0.356 l 0,0 c -2.952,0.311 -5.366,0.621 -4.822,0.144 l 0,0 c 7.186,-6.315 16.994,-5.628 18.245,-5.365 l 0,0 c 1.247,0.262 2.885,2.506 2.885,2.506 l 0,0 c 0,0 0.485,-0.233 1.301,-0.721 l 0,0 c 0.818,-0.489 3.393,-0.587 3.791,0.07 l 0,0 c 0.502,0.832 -0.27,1.562 -0.27,1.562 l 0,0 -2.058,3.157 c 0,0 7.429,0.367 7.473,4.156 l 0,0 c 0.044,3.789 -0.937,17.667 -0.937,17.667 l 0,0 c 0,0 -5.187,-12.916 -8.876,-14.667"
               style="fill:url(#linearGradient24);stroke:none"
               id="path36"
               inkscape:connector-curvature="0" /></g></g></g></g><g
       id="g38"><g
         id="g40"
         clip-path="url(#clipPath42)"><g
           id="g46"
           transform="translate(146.9731,25.2188)"><path
             d="m 0,0 c -2.935,0 -5.324,2.457 -5.324,5.392 l 0,42.125 c 0,2.935 2.389,5.392 5.324,5.392 3.003,0 5.392,-2.457 5.392,-5.392 l 0,-42.125 C 5.392,2.457 3.003,0 0,0"
             style="fill:#31607a;fill-opacity:1;fill-rule:nonzero;stroke:none"
             id="path48"
             inkscape:connector-curvature="0" /></g><g
           id="g50"
           transform="translate(162.5337,25.2188)"><path
             d="m 0,0 c -3.003,0 -5.392,2.457 -5.392,5.392 l 0,27.464 c 0,2.935 2.389,5.392 5.392,5.392 2.935,0 5.324,-2.457 5.324,-5.392 l 0,-27.464 C 5.324,2.457 2.935,0 0,0"
             style="fill:#31607a;fill-opacity:1;fill-rule:nonzero;stroke:none"
             id="path52"
             inkscape:connector-curvature="0" /></g><g
           id="g54"
           transform="translate(167.4478,73.3057)"><path
             d="m 0,0 c 0,-2.73 -2.184,-4.914 -4.914,-4.914 -2.73,0 -4.982,2.184 -4.982,4.914 0,2.662 2.252,4.846 4.982,4.846 C -2.184,4.846 0,2.662 0,0"
             style="fill:#31607a;fill-opacity:1;fill-rule:nonzero;stroke:none"
             id="path56"
             inkscape:connector-curvature="0" /></g><g
           id="g58"
           transform="translate(205.8755,46.6699)"><path
             d="m 0,0 0,-15.33 c 0,-3.264 -2.656,-5.996 -5.996,-5.996 -3.263,0 -5.919,2.732 -5.919,5.996 l 0,15.33 c 0,2.656 -2.125,4.705 -4.705,4.705 -2.581,0 -4.706,-2.049 -4.706,-4.705 l 0,-15.33 c 0,-3.264 -2.656,-5.996 -5.995,-5.996 -3.264,0 -5.92,2.732 -5.92,5.996 l 0,26.714 c 0,2.884 2.353,5.236 5.237,5.236 1.518,0 2.959,-0.683 3.87,-1.669 2.353,1.138 4.857,1.745 7.514,1.745 4.401,0 8.575,-1.745 11.763,-4.933 C -1.746,8.652 0,4.478 0,0"
             style="fill:#31607a;fill-opacity:1;fill-rule:nonzero;stroke:none"
             id="path60"
             inkscape:connector-curvature="0" /></g><g
           id="g62"
           transform="translate(244.6226,43.5063)"><path
             d="m 0,0 c -0.216,-4.865 -2.162,-9.405 -5.513,-12.755 -3.405,-3.46 -8.054,-5.352 -12.972,-5.352 -5.027,0 -9.729,2 -13.189,5.621 -3.405,3.514 -5.296,8.27 -5.296,13.297 0,2.54 0.54,5.026 1.513,7.351 0.973,2.27 2.324,4.27 4.054,5.999 1.729,1.784 3.729,3.135 5.999,4.054 2.324,1.027 4.811,1.513 7.351,1.513 2.162,0 4.216,-0.378 6.216,-1.027 1.892,-0.702 3.729,-1.621 5.351,-2.864 1.73,-1.406 2.108,-3.946 0.703,-5.73 -0.757,-1.027 -2,-1.567 -3.189,-1.567 -0.865,0 -1.73,0.27 -2.487,0.865 -1.891,1.459 -4.162,2.216 -6.594,2.216 -2.864,0 -5.567,-1.135 -7.621,-3.189 -2.054,-2 -3.189,-4.757 -3.189,-7.621 0,-2.973 1.081,-5.676 3.027,-7.728 1.946,-2 4.54,-3.082 7.351,-3.082 1.405,0 2.756,0.27 4.054,0.81 1.189,0.487 2.27,1.19 3.189,2.162 1.135,1.136 1.999,2.541 2.54,4.108 l 0.271,0 c -1.946,0 -3.568,1.622 -3.568,3.622 0,1.945 1.622,3.567 3.568,3.567 l 4.323,0 c 0.108,0 0.27,0 0.379,-0.054 C -1.567,4.054 0.108,2.216 0,0"
             style="fill:#31607a;fill-opacity:1;fill-rule:nonzero;stroke:none"
             id="path64"
             inkscape:connector-curvature="0" /></g><g
           id="g66"
           transform="translate(244.6226,43.5063)"><path
             d="m 0,0 c -0.216,-4.865 -2.162,-9.405 -5.513,-12.755 -3.405,-3.46 -8.054,-5.352 -12.972,-5.352 -5.027,0 -9.729,2 -13.189,5.621 -3.405,3.514 -5.296,8.27 -5.296,13.297 0,2.54 0.54,5.026 1.513,7.351 0.973,2.27 2.324,4.27 4.054,5.999 1.729,1.784 3.729,3.135 5.999,4.054 2.324,1.027 4.811,1.513 7.351,1.513 2.162,0 4.216,-0.378 6.216,-1.027 1.892,-0.702 3.729,-1.621 5.351,-2.864 1.73,-1.406 2.108,-3.946 0.703,-5.73 -0.757,-1.027 -2,-1.567 -3.189,-1.567 -0.865,0 -1.73,0.27 -2.487,0.865 -1.891,1.459 -4.162,2.216 -6.594,2.216 -2.864,0 -5.567,-1.135 -7.621,-3.189 -2.054,-2 -3.189,-4.757 -3.189,-7.621 0,-2.973 1.081,-5.676 3.027,-7.728 1.946,-2 4.54,-3.082 7.351,-3.082 1.405,0 2.756,0.27 4.054,0.81 1.189,0.487 2.27,1.19 3.189,2.162 1.135,1.136 1.999,2.541 2.54,4.108 l 0.271,0 c -1.946,0 -3.568,1.622 -3.568,3.622 0,1.945 1.622,3.567 3.568,3.567 l 4.323,0 c 0.108,0 0.27,0 0.379,-0.054 C -1.567,4.054 0.108,2.216 0,0 Z"
             style="fill:none;stroke:#31607a;stroke-width:1;stroke-linecap:butt;stroke-linejoin:miter;stroke-miterlimit:10;stroke-dasharray:none;stroke-opacity:1"
             id="path68"
             inkscape:connector-curvature="0" /></g><g
           id="g70"
           transform="translate(239.5415,47.3496)"><path
             d="m 0,0 c -1.179,-0.044 -2.344,-0.167 -3.483,-0.345 l 0,-18.091 c 0,-1.946 1.933,-3.57 4.317,-3.57 2.318,0 4.252,1.624 4.252,3.57 l 0,14.322 c 0,0.111 0,0.278 -0.066,0.378 C 4.821,-1.568 2.636,0.111 0,0"
             style="fill:#31607a;fill-opacity:1;fill-rule:nonzero;stroke:none"
             id="path72"
             inkscape:connector-curvature="0" /></g><g
           id="g74"
           transform="translate(239.5415,47.3496)"><path
             d="m 0,0 c -1.179,-0.044 -2.344,-0.167 -3.483,-0.345 l 0,-18.091 c 0,-1.946 1.933,-3.57 4.317,-3.57 2.318,0 4.252,1.624 4.252,3.57 l 0,14.322 c 0,0.111 0,0.278 -0.066,0.378 C 4.821,-1.568 2.636,0.111 0,0 Z"
             style="fill:none;stroke:#31607a;stroke-width:1;stroke-linecap:butt;stroke-linejoin:miter;stroke-miterlimit:10;stroke-dasharray:none;stroke-opacity:1"
             id="path76"
             inkscape:connector-curvature="0" /></g><g
           id="g78"
           transform="translate(274.5576,47.3496)"><path
             d="m 0,0 c -1.179,-0.044 -2.344,-0.167 -3.483,-0.345 l 0,-18.091 c 0,-1.946 1.933,-3.57 4.317,-3.57 2.318,0 4.252,1.624 4.252,3.57 l 0,14.322 c 0,0.111 0,0.278 -0.066,0.378 C 4.821,-1.568 2.636,0.111 0,0"
             style="fill:#31607a;fill-opacity:1;fill-rule:nonzero;stroke:none"
             id="path80"
             inkscape:connector-curvature="0" /></g><g
           id="g82"
           transform="translate(263.0249,25.3438)"><path
             d="m 0,0 c -4.478,0 -8.652,1.746 -11.763,4.857 -3.112,3.189 -4.857,7.363 -4.857,11.764 l 0,15.331 c 0,3.339 2.656,5.994 5.919,5.994 3.339,0 5.996,-2.655 5.996,-5.994 l 0,-15.331 c 0,-2.58 2.125,-4.706 4.705,-4.706 2.58,0 4.629,2.126 4.629,4.706 l 0,15.331 c 0,3.339 2.733,5.994 5.996,5.994 3.263,0 5.994,-2.655 5.994,-5.994 l 0,-15.331 C 16.619,12.22 14.873,8.046 11.687,4.857 8.576,1.746 4.402,0 0,0"
             style="fill:#31607a;fill-opacity:1;fill-rule:nonzero;stroke:none"
             id="path84"
             inkscape:connector-curvature="0" /></g><g
           id="g86"
           transform="translate(307.4517,44.3931)"><path
             d="m 0,0 c 0,1.897 -0.759,3.643 -2.049,5.009 -1.366,1.366 -3.112,2.049 -5.009,2.049 -1.897,0 -3.643,-0.683 -5.009,-2.049 -1.366,-1.366 -2.049,-3.112 -2.049,-5.009 0,-1.897 0.683,-3.643 2.049,-5.009 1.366,-1.29 3.112,-2.049 5.009,-2.049 1.897,0 3.643,0.759 5.009,2.049 C -0.759,-3.643 0,-1.897 0,0 m 11.915,13.661 0,-27.398 c 0,-2.883 -2.353,-5.236 -5.236,-5.236 -1.898,0 -3.491,0.986 -4.478,2.429 -2.732,-1.518 -5.92,-2.429 -9.259,-2.429 -10.473,0 -18.973,8.5 -18.973,18.973 0,10.473 8.5,18.973 18.973,18.973 3.415,0 6.603,-0.911 9.335,-2.428 0.986,1.366 2.58,2.352 4.402,2.352 2.883,0 5.236,-2.352 5.236,-5.236"
             style="fill:#31607a;fill-opacity:1;fill-rule:nonzero;stroke:none"
             id="path88"
             inkscape:connector-curvature="0" /></g><g
           id="g90"
           transform="translate(375.3843,46.6699)"><path
             d="m 0,0 0,-15.33 c 0,-3.34 -2.656,-5.996 -5.92,-5.996 -3.339,0 -5.995,2.656 -5.995,5.996 l 0,15.33 c 0,2.58 -2.125,4.705 -4.705,4.705 -2.581,0 -4.63,-2.125 -4.63,-4.705 l 0,-15.33 c 0,-3.34 -2.656,-5.996 -5.995,-5.996 -3.264,0 -5.996,2.656 -5.996,5.996 l 0,15.33 c 0,2.58 -2.049,4.705 -4.629,4.705 -2.581,0 -4.706,-2.125 -4.706,-4.705 l 0,-15.33 c 0,-3.34 -2.656,-5.996 -5.995,-5.996 -3.264,0 -5.92,2.656 -5.92,5.996 l 0,2.58 0,24.058 c 0,2.96 2.353,5.312 5.237,5.312 1.518,0 2.96,-0.683 3.87,-1.745 2.353,1.138 4.857,1.745 7.514,1.745 3.946,0 7.665,-1.366 10.625,-3.87 2.959,2.504 6.678,3.87 10.625,3.87 4.477,0 8.651,-1.745 11.763,-4.857 C -1.67,8.652 0,4.478 0,0"
             style="fill:#609ba8;fill-opacity:1;fill-rule:nonzero;stroke:none"
             id="path92"
             inkscape:connector-curvature="0" /></g><g
           id="g94"
           transform="translate(403.209,44.3931)"><path
             d="m 0,0 c 0,1.897 -0.759,3.643 -2.049,5.009 -1.366,1.366 -3.112,2.049 -5.009,2.049 -1.897,0 -3.643,-0.683 -5.009,-2.049 -1.366,-1.366 -2.049,-3.112 -2.049,-5.009 0,-1.897 0.683,-3.643 2.049,-5.009 1.366,-1.29 3.112,-2.049 5.009,-2.049 1.897,0 3.643,0.759 5.009,2.049 C -0.759,-3.643 0,-1.897 0,0 m 11.915,13.661 0,-27.398 c 0,-2.883 -2.353,-5.236 -5.236,-5.236 -1.898,0 -3.492,0.986 -4.478,2.429 -2.732,-1.518 -5.92,-2.429 -9.259,-2.429 -10.473,0 -18.973,8.5 -18.973,18.973 0,10.473 8.5,18.973 18.973,18.973 3.415,0 6.603,-0.911 9.335,-2.428 0.986,1.366 2.58,2.352 4.402,2.352 2.883,0 5.236,-2.352 5.236,-5.236"
             style="fill:#609ba8;fill-opacity:1;fill-rule:nonzero;stroke:none"
             id="path96"
             inkscape:connector-curvature="0" /></g><g
           id="g98"
           transform="translate(473.4272,63.2905)"><path
             d="m 0,0 c 3.112,0 5.692,-2.504 5.692,-5.616 0,-3.188 -2.58,-5.768 -5.692,-5.768 l -5.692,0 0,-20.937 c 0,-3.036 -2.504,-5.616 -5.692,-5.616 -3.111,0 -5.616,2.58 -5.616,5.616 l 0,20.937 -5.768,0 c -3.111,0 -5.616,2.58 -5.616,5.768 0,3.112 2.505,5.616 5.616,5.616 L 0,0 Z"
             style="fill:#609ba8;fill-opacity:1;fill-rule:nonzero;stroke:none"
             id="path100"
             inkscape:connector-curvature="0" /></g><g
           id="g102"
           transform="translate(502.8647,49.2505)"><path
             d="M 0,0 1.745,0 C 1.062,2.732 -1.897,4.705 -5.388,4.705 -8.955,4.705 -11.915,2.732 -12.674,0 L -10.397,0 0.076,0 0,0 Z m 5.995,-8.348 -19.049,0 c 0.38,-0.987 0.987,-1.973 1.822,-2.656 1.594,-1.518 3.87,-2.429 6.451,-2.429 2.201,0 4.553,0.683 6.147,1.821 2.277,1.67 5.388,0.987 7.058,-1.366 1.518,-2.353 0.911,-5.692 -1.366,-7.285 -3.263,-2.353 -7.589,-3.643 -11.839,-3.643 -5.237,0 -9.942,1.897 -13.509,5.312 -1.67,1.67 -3.036,3.642 -3.947,5.92 -1.062,2.201 -1.593,4.705 -1.593,7.286 l 0,0.303 0,0.304 c 0,2.58 0.531,5.009 1.518,7.361 0.986,2.277 2.276,4.25 3.87,5.996 1.746,1.745 3.643,3.111 5.844,4.098 2.277,0.987 4.705,1.366 7.21,1.366 4.401,0 8.727,-1.366 11.915,-4.098 3.491,-2.884 5.768,-6.982 6.299,-11.612 0.455,-3.263 -1.898,-6.299 -5.085,-6.678 -0.228,0 -0.455,-0.076 -0.759,-0.076 -0.228,0 -0.531,0.076 -0.683,0.076 l -0.304,0 z"
             style="fill:#609ba8;fill-opacity:1;fill-rule:nonzero;stroke:none"
             id="path104"
             inkscape:connector-curvature="0" /></g><g
           id="g106"
           transform="translate(532.7168,53.0527)"><path
             d="m 0,0 -4.982,0 0,-9.214 4.982,0 c 2.594,0 4.505,2.048 4.505,4.573 C 4.505,-2.116 2.594,0 0,0 m 12.531,-20.671 c 1.434,-1.979 0.819,-4.846 -1.16,-6.211 -0.751,-0.546 -1.706,-0.819 -2.525,-0.819 -1.433,0 -2.935,0.683 -3.822,1.979 l -10.006,6.27 0,-3.198 c 0,-2.73 -2.253,-5.051 -5.051,-5.051 -2.866,0 -5.05,2.321 -5.05,5.051 l 0,27.837 c 0,2.662 2.184,4.982 4.982,5.051 l 10.101,0 c 2.048,0 3.89,-0.478 5.733,-1.229 1.706,-0.682 3.413,-1.774 4.709,-3.208 1.365,-1.228 2.457,-2.798 3.208,-4.641 0.683,-1.843 1.16,-3.754 1.16,-5.801 0,-1.979 -0.477,-3.89 -1.16,-5.733 -0.751,-1.706 -1.843,-3.276 -3.208,-4.641 -1.296,-1.365 -0.774,-0.53 -2.43,-1.655 -0.205,-0.068 2.312,-1.69 2.175,-1.758 l 2.344,-2.243 z"
             style="fill:#609ba8;fill-opacity:1;fill-rule:nonzero;stroke:none"
             id="path108"
             inkscape:connector-curvature="0" /></g><g
           id="g110"
           transform="translate(200.8203,18.2803)"><path
             d="m 0,0 0,-11.931 -3.733,0 0,9.077 -3.66,0 0,-9.077 -3.709,0 0,11.931 L 0,0 Z"
             style="fill:#31607a;fill-opacity:1;fill-rule:nonzero;stroke:none"
             id="path112"
             inkscape:connector-curvature="0" /></g><g
           id="g114"
           transform="translate(211.021,13.6689)"><path
             d="M 0,0 C 0,0.902 -0.391,2.416 -2.098,2.416 -3.66,2.416 -4.294,0.976 -4.392,0 L 0,0 Z m -4.368,-2.537 c 0.098,-1.537 1.635,-2.27 3.368,-2.27 1.268,0 2.293,0.171 3.293,0.513 l 0.488,-2.514 c -1.219,-0.511 -2.708,-0.755 -4.318,-0.755 -4.05,0 -6.368,2.341 -6.368,6.075 0,3.025 1.879,6.368 6.026,6.368 3.855,0 5.319,-3.001 5.319,-5.953 0,-0.635 -0.073,-1.197 -0.122,-1.464 l -7.686,0 z"
             style="fill:#31607a;fill-opacity:1;fill-rule:nonzero;stroke:none"
             id="path116"
             inkscape:connector-curvature="0" /></g><g
           id="g118"
           transform="translate(220.3921,11.4727)"><path
             d="m 0,0 c 0,-0.292 0.024,-0.536 0.073,-0.78 0.244,-1 1.098,-1.757 2.172,-1.757 1.61,0 2.562,1.342 2.562,3.367 0,1.903 -0.854,3.343 -2.514,3.343 C 1.245,4.173 0.317,3.392 0.073,2.294 0.024,2.099 0,1.854 0,1.635 L 0,0 Z m -3.708,2.807 c 0,1.561 -0.049,2.88 -0.098,4.001 l 3.221,0 0.17,-1.66 0.049,0 c 0.879,1.245 2.245,1.928 3.977,1.928 2.611,0 4.953,-2.269 4.953,-6.075 0,-4.343 -2.757,-6.393 -5.417,-6.393 -1.439,0 -2.561,0.586 -3.098,1.367 l -0.049,0 0,-5.929 -3.708,0 0,12.761 z"
             style="fill:#31607a;fill-opacity:1;fill-rule:nonzero;stroke:none"
             id="path120"
             inkscape:connector-curvature="0" /></g><g
           id="g122"
           transform="translate(238.498,13.6689)"><path
             d="M 0,0 C 0,0.902 -0.391,2.416 -2.098,2.416 -3.66,2.416 -4.294,0.976 -4.392,0 L 0,0 Z m -4.368,-2.537 c 0.098,-1.537 1.635,-2.27 3.368,-2.27 1.269,0 2.293,0.171 3.293,0.513 l 0.488,-2.514 c -1.219,-0.511 -2.708,-0.755 -4.318,-0.755 -4.05,0 -6.368,2.341 -6.368,6.075 0,3.025 1.879,6.368 6.026,6.368 3.855,0 5.319,-3.001 5.319,-5.953 0,-0.635 -0.073,-1.197 -0.122,-1.464 l -7.686,0 z"
             style="fill:#31607a;fill-opacity:1;fill-rule:nonzero;stroke:none"
             id="path124"
             inkscape:connector-curvature="0" /></g><g
           id="g126"
           transform="translate(247.7959,13.6201)"><path
             d="m 0,0 0.952,0 c 1.488,0 2.44,0.391 2.44,1.293 0,0.781 -0.659,1.244 -2.147,1.244 C 0.756,2.537 0.415,2.489 0,2.465 L 0,0 Z m -0.024,-5.148 c 0.39,-0.049 0.683,-0.049 1.244,-0.049 1.269,0 2.538,0.366 2.538,1.537 0,1.05 -0.976,1.513 -2.733,1.513 l -1.049,0 0,-3.001 z M -3.66,4.538 c 0.903,0.122 2.952,0.293 4.807,0.293 2.025,0 5.904,-0.22 5.904,-3.05 0,-1.537 -1.244,-2.343 -2.439,-2.561 l 0,-0.074 c 1.781,-0.292 2.952,-1.269 2.952,-2.903 0,-3.391 -4.611,-3.684 -7.051,-3.684 -1.659,0 -3.416,0.122 -4.173,0.219 l 0,11.76 z"
             style="fill:#31607a;fill-opacity:1;fill-rule:nonzero;stroke:none"
             id="path128"
             inkscape:connector-curvature="0" /></g><g
           id="g130"
           transform="translate(260.7783,12.3271)"><path
             d="m 0,0 c 0,-2.05 0.854,-3.587 2.44,-3.587 1.464,0 2.367,1.44 2.367,3.611 0,1.757 -0.683,3.563 -2.367,3.563 C 0.683,3.587 0,1.757 0,0 m 8.637,0.122 c 0,-4.367 -3.098,-6.368 -6.295,-6.368 -3.488,0 -6.173,2.293 -6.173,6.148 0,3.88 2.538,6.344 6.393,6.344 3.635,0 6.075,-2.513 6.075,-6.124"
             style="fill:#31607a;fill-opacity:1;fill-rule:nonzero;stroke:none"
             id="path132"
             inkscape:connector-curvature="0" /></g><g
           id="g134"
           transform="translate(276.1514,14.1816)"><path
             d="m 0,0 c 0,-1.001 -0.171,-2.074 -0.439,-3.099 -0.171,-0.708 -0.488,-1.415 -0.83,-2.025 l 3.953,0 0,6.515 L 0,1.391 0,0 Z m 6.295,4.099 0,-9.321 1.317,-0.049 -0.171,-6.417 -2.781,0 -0.122,3.856 -7.539,0 -0.171,-3.856 -2.806,0 -0.097,6.393 1.122,0.073 c 0.513,0.757 0.927,1.611 1.196,2.489 0.365,1.245 0.536,2.587 0.536,3.904 l 0,2.928 9.516,0 z"
             style="fill:#31607a;fill-opacity:1;fill-rule:nonzero;stroke:none"
             id="path136"
             inkscape:connector-curvature="0" /></g><g
           id="g138"
           transform="translate(288.9385,18.2803)"><path
             d="m 0,0 0,-3.732 c 0,-1.319 0.487,-2.001 1.781,-2.001 0.61,0 1.269,0.244 1.611,0.511 l 0,5.222 3.708,0 0,-12.102 -3.708,0 0,4.49 -0.049,0 C 2.61,-8.076 1.464,-8.369 0.342,-8.369 c -2.563,0 -4.051,1.465 -4.051,4.295 L -3.709,0 0,0 Z"
             style="fill:#31607a;fill-opacity:1;fill-rule:nonzero;stroke:none"
             id="path140"
             inkscape:connector-curvature="0" /></g><g
           id="g142"
           transform="translate(306.2148,13.6689)"><path
             d="M 0,0 C 0,0.902 -0.39,2.416 -2.098,2.416 -3.659,2.416 -4.294,0.976 -4.392,0 L 0,0 Z m -4.367,-2.537 c 0.097,-1.537 1.635,-2.27 3.367,-2.27 1.269,0 2.294,0.171 3.294,0.513 l 0.488,-2.514 c -1.22,-0.511 -2.709,-0.755 -4.319,-0.755 -4.05,0 -6.368,2.341 -6.368,6.075 0,3.025 1.879,6.368 6.027,6.368 3.855,0 5.318,-3.001 5.318,-5.953 0,-0.635 -0.073,-1.197 -0.122,-1.464 l -7.685,0 z"
             style="fill:#31607a;fill-opacity:1;fill-rule:nonzero;stroke:none"
             id="path144"
             inkscape:connector-curvature="0" /></g><g
           id="g146"
           transform="translate(320.832,6.667)"><path
             d="m 0,0 c -0.658,-0.317 -1.902,-0.562 -3.318,-0.562 -3.855,0 -6.32,2.367 -6.32,6.1 0,3.489 2.392,6.344 6.832,6.344 0.976,0 2.05,-0.171 2.83,-0.464 L -0.561,8.661 C -1,8.856 -1.659,9.027 -2.635,9.027 c -1.952,0 -3.22,-1.39 -3.196,-3.342 0,-2.172 1.464,-3.343 3.269,-3.343 0.878,0 1.562,0.146 2.124,0.39 L 0,0 Z"
             style="fill:#31607a;fill-opacity:1;fill-rule:nonzero;stroke:none"
             id="path148"
             inkscape:connector-curvature="0" /></g><g
           id="g150"
           transform="translate(326.5918,18.2803)"><path
             d="m 0,0 0,-4.758 0.39,0 L 3.415,0 7.734,0 3.343,-5.148 c 1.415,-0.244 2.317,-1.538 3.001,-3.269 0.414,-0.977 0.853,-2.392 1.439,-3.514 l -3.88,0 c -0.317,0.512 -0.609,1.367 -1.073,2.635 -0.513,1.366 -1.268,2.099 -2.465,2.099 l -0.365,0 0,-4.734 -3.709,0 L -3.709,0 0,0 Z"
             style="fill:#31607a;fill-opacity:1;fill-rule:nonzero;stroke:none"
             id="path152"
             inkscape:connector-curvature="0" /></g><g
           id="g154"
           transform="translate(342.4043,11.9854)"><path
             d="m 0,0 c -1.952,0 -3.465,-0.464 -3.465,-1.879 0,-0.951 0.635,-1.415 1.464,-1.415 0.903,0 1.684,0.61 1.928,1.366 C -0.024,-1.732 0,-1.513 0,-1.293 L 0,0 Z m 3.587,-2.757 c 0,-1.122 0.049,-2.221 0.195,-2.879 l -3.343,0 -0.219,1.196 -0.074,0 c -0.781,-0.952 -2,-1.464 -3.416,-1.464 -2.415,0 -3.854,1.758 -3.854,3.66 0,3.098 2.781,4.562 7.002,4.562 l 0,0.147 c 0,0.658 -0.342,1.561 -2.172,1.561 -1.22,0 -2.513,-0.415 -3.293,-0.903 l -0.684,2.392 c 0.83,0.464 2.464,1.073 4.636,1.073 3.977,0 5.222,-2.343 5.222,-5.173 l 0,-4.172 z"
             style="fill:#31607a;fill-opacity:1;fill-rule:nonzero;stroke:none"
             id="path156"
             inkscape:connector-curvature="0" /></g><g
           id="g158"
           transform="translate(355.9727,16.085)"><path
             d="m 0,0 c -0.317,0.048 -0.684,0.097 -1.27,0.097 -1.195,0 -2.219,-0.463 -2.219,-1.562 0,-1.024 1.171,-1.537 2.268,-1.537 0.586,0 0.904,0.024 1.221,0.024 L 0,0 Z m 3.659,-9.735 -3.659,0 0,4.489 -0.757,0 c -0.78,0 -1.342,-0.366 -1.708,-0.855 -0.634,-0.609 -0.951,-1.731 -1.293,-2.659 -0.146,-0.342 -0.268,-0.585 -0.464,-0.975 l -3.952,0 c 0.293,0.366 0.537,0.829 0.756,1.317 0.391,0.951 0.903,2.513 1.659,3.294 0.391,0.415 0.879,0.756 1.513,0.878 l 0,0.073 c -1.342,0.147 -3.074,1.05 -3.074,2.952 0,1.489 0.854,2.343 2.025,2.879 1.073,0.537 2.757,0.733 4.392,0.733 1.854,0 3.489,-0.147 4.562,-0.269 l 0,-11.857 z"
             style="fill:#31607a;fill-opacity:1;fill-rule:nonzero;stroke:none"
             id="path160"
             inkscape:connector-curvature="0" /></g><g
           id="g162"
           transform="translate(371.2246,18.2803)"><path
             d="m 0,0 0,-4.758 0.39,0 L 3.415,0 7.734,0 3.343,-5.148 c 1.415,-0.244 2.317,-1.538 3.001,-3.269 0.414,-0.977 0.853,-2.392 1.439,-3.514 l -3.88,0 c -0.317,0.512 -0.609,1.367 -1.073,2.635 -0.513,1.366 -1.268,2.099 -2.465,2.099 l -0.365,0 0,-4.734 -3.709,0 L -3.709,0 0,0 Z"
             style="fill:#31607a;fill-opacity:1;fill-rule:nonzero;stroke:none"
             id="path164"
             inkscape:connector-curvature="0" /></g><g
           id="g166"
           transform="translate(383.4258,12.3271)"><path
             d="m 0,0 c 0,-2.05 0.854,-3.587 2.439,-3.587 1.465,0 2.368,1.44 2.368,3.611 0,1.757 -0.684,3.563 -2.368,3.563 C 0.684,3.587 0,1.757 0,0 m 8.637,0.122 c 0,-4.367 -3.099,-6.368 -6.294,-6.368 -3.489,0 -6.174,2.293 -6.174,6.148 0,3.88 2.538,6.344 6.393,6.344 3.635,0 6.075,-2.513 6.075,-6.124"
             style="fill:#31607a;fill-opacity:1;fill-rule:nonzero;stroke:none"
             id="path168"
             inkscape:connector-curvature="0" /></g><g
           id="g170"
           transform="translate(394.7002,18.2803)"><path
             d="m 0,0 4.733,0 1.293,-4.514 c 0.196,-0.708 0.537,-1.927 0.781,-3.001 l 0.073,0 c 0.22,0.805 0.61,2.123 0.952,3.27 L 9.149,0 l 4.685,0 0.731,-11.931 -3.439,0 -0.195,4.783 c -0.025,1.024 -0.098,2.756 -0.122,4.171 l -0.074,0 C 10.271,-4.562 10.198,-4.953 9.589,-6.88 l -1.586,-4.855 -2.709,0 -1.415,4.733 C 3.562,-5.88 3.172,-4.172 2.903,-3.05 l -0.097,0 C 2.757,-4.538 2.732,-6.222 2.684,-7.222 l -0.196,-4.709 -3.318,0 L 0,0 Z"
             style="fill:#31607a;fill-opacity:1;fill-rule:nonzero;stroke:none"
             id="path172"
             inkscape:connector-curvature="0" /></g><g
           id="g174"
           transform="translate(422.8838,18.2803)"><path
             d="m 0,0 0,-11.931 -3.733,0 0,9.077 -3.66,0 0,-9.077 -3.709,0 0,11.931 L 0,0 Z"
             style="fill:#31607a;fill-opacity:1;fill-rule:nonzero;stroke:none"
             id="path176"
             inkscape:connector-curvature="0" /></g><g
           id="g178"
           transform="translate(432.2061,11.9854)"><path
             d="m 0,0 c -1.952,0 -3.465,-0.464 -3.465,-1.879 0,-0.951 0.635,-1.415 1.464,-1.415 0.903,0 1.684,0.61 1.928,1.366 C -0.024,-1.732 0,-1.513 0,-1.293 L 0,0 Z m 3.587,-2.757 c 0,-1.122 0.049,-2.221 0.195,-2.879 l -3.343,0 -0.219,1.196 -0.074,0 c -0.781,-0.952 -2,-1.464 -3.416,-1.464 -2.415,0 -3.854,1.758 -3.854,3.66 0,3.098 2.781,4.562 7.002,4.562 l 0,0.147 c 0,0.658 -0.342,1.561 -2.172,1.561 -1.22,0 -2.513,-0.415 -3.293,-0.903 l -0.684,2.392 c 0.83,0.464 2.464,1.073 4.636,1.073 3.977,0 5.222,-2.343 5.222,-5.173 l 0,-4.172 z"
             style="fill:#31607a;fill-opacity:1;fill-rule:nonzero;stroke:none"
             id="path180"
             inkscape:connector-curvature="0" /></g><g
           id="g182"
           transform="translate(442.4307,18.2803)"><path
             d="m 0,0 0,-4.318 3.757,0 0,4.318 3.709,0 0,-11.931 -3.709,0 0,4.734 -3.757,0 0,-4.734 -3.709,0 L -3.709,0 0,0 Z"
             style="fill:#31607a;fill-opacity:1;fill-rule:nonzero;stroke:none"
             id="path184"
             inkscape:connector-curvature="0" /></g><g
           id="g186"
           transform="translate(456.3643,18.2803)"><path
             d="m 0,0 0,-3.66 c 0,-1.902 -0.098,-3.244 -0.195,-4.855 l 0.097,-0.024 c 0.562,1.366 0.878,2.293 1.367,3.415 L 3.587,0 l 4.538,0 0,-11.931 -3.514,0 0,3.635 c 0,1.855 0.098,2.636 0.22,5.149 l -0.098,0 C 4.27,-4.44 3.977,-5.222 3.489,-6.344 2.732,-8.003 1.83,-10.076 1,-11.931 l -4.514,0 L -3.514,0 0,0 Z"
             style="fill:#31607a;fill-opacity:1;fill-rule:nonzero;stroke:none"
             id="path188"
             inkscape:connector-curvature="0" /></g><g
           id="g190"
           transform="translate(474.3242,16.085)"><path
             d="m 0,0 c -0.317,0.048 -0.684,0.097 -1.27,0.097 -1.195,0 -2.219,-0.463 -2.219,-1.562 0,-1.024 1.171,-1.537 2.268,-1.537 0.586,0 0.904,0.024 1.221,0.024 L 0,0 Z m 3.659,-9.735 -3.659,0 0,4.489 -0.757,0 c -0.78,0 -1.342,-0.366 -1.708,-0.855 -0.634,-0.609 -0.951,-1.731 -1.293,-2.659 -0.146,-0.342 -0.268,-0.585 -0.464,-0.975 l -3.952,0 c 0.293,0.366 0.537,0.829 0.756,1.317 0.391,0.951 0.903,2.513 1.659,3.294 0.391,0.415 0.879,0.756 1.513,0.878 l 0,0.073 c -1.342,0.147 -3.074,1.05 -3.074,2.952 0,1.489 0.854,2.343 2.025,2.879 1.073,0.537 2.757,0.733 4.392,0.733 1.854,0 3.489,-0.147 4.562,-0.269 l 0,-11.857 z"
             style="fill:#31607a;fill-opacity:1;fill-rule:nonzero;stroke:none"
             id="path192"
             inkscape:connector-curvature="0" /></g><g
           id="g194"
           transform="translate(65.7969,35.4424)"><path
             d="m 0,0 5.109,1.475 c 0,0 3.489,0.823 3.479,2.863 -0.008,1.615 -5.187,4.595 -7.187,4.595 -2,0 -4,-0.625 -4,-0.625 0,0 -0.584,5.708 -2.5,7.625 -1.898,1.898 -13.501,10.39 -33.25,6.75 -3.357,-0.62 18.958,-6.875 19,-11.875 0.034,-4.129 -3.874,-5.955 -7.041,-6.757 6.254,-3.589 19.128,-10.7 25.755,-12.379 C 2.005,-2.714 0,0 0,0"
             style="fill:#373535;fill-opacity:1;fill-rule:nonzero;stroke:none"
             id="path196"
             inkscape:connector-curvature="0" /></g><g
           id="g198"
           transform="translate(64.4473,25.75)"><path
             d="m 0,0 c 0.283,0.487 0.513,0.936 0.714,1.364 -6.627,1.679 -19.501,8.79 -25.755,12.379 -2.15,-0.545 -3.959,-0.618 -3.959,-0.618 0,0 -28.542,-2.875 -35.125,-4.75 -0.421,-0.12 -0.438,-1.746 0,-1.75 5.083,-0.042 23.167,2.292 23.5,0.75 0.415,-1.921 -16.083,-5.792 -21.25,-7.25 -0.284,-0.08 0.33,-0.992 0.625,-1 7.708,-0.208 27.047,5.532 29.792,5.708 6.5,0.417 8.458,-0.458 8.458,-0.458 0,0 9.5,-1.25 6.75,-5.25 -1.068,-1.553 -3.984,-5.653 -7.151,-10.084 l 10.734,-0.321 C -6.746,-6.917 -1.513,-2.6 0,0"
             style="fill:#ee3338;fill-opacity:1;fill-rule:nonzero;stroke:none"
             id="path200"
             inkscape:connector-curvature="0" /></g><g
           id="g202"
           transform="translate(41.0469,14.791)"><path
             d="m 0,0 c -4.988,-6.981 -10.599,-14.791 -10.599,-14.791 0,0 11.597,7.298 21.332,14.471 L 0,0 Z"
             style="fill:#fff215;fill-opacity:1;fill-rule:nonzero;stroke:none"
             id="path204"
             inkscape:connector-curvature="0" /></g><g
           id="g206"
           transform="translate(115.3462,63.8936)"><path
             d="m 0,0 5.094,0.568 c 0,0 1.161,0.072 1.601,1.32 C 7.042,2.874 4.9,5.053 3.68,5.489 2.461,5.926 1.884,6.418 1.884,6.418 c 0,0 0.696,3.647 0.14,5.196 -0.479,1.336 -4.155,6.673 -12.467,9.727 C -7.885,15.906 -2.625,4.734 0.721,-2.339 1.3,-0.748 0,0 0,0"
             style="fill:#e7e8e9;fill-opacity:1;fill-rule:nonzero;stroke:none"
             id="path208"
             inkscape:connector-curvature="0" /></g><g
           id="g210"
           transform="translate(104.9028,85.2349)"><path
             d="m 0,0 c -1.873,0.688 -3.978,1.263 -6.339,1.648 -2.182,0.355 10.062,-8.332 8.996,-11.39 -1.478,-4.241 -8.318,-2.098 -8.318,-2.098 0,0 -3.281,0.814 -7.385,1.771 1.325,-1.89 2.867,-4.09 4.502,-6.418 3.693,-1.107 4.632,-1.999 4.632,-1.999 0,0 4.569,-2.651 2.514,-5.031 -0.252,-0.292 -0.693,-0.75 -1.271,-1.325 1.414,-2.005 2.769,-3.924 3.989,-5.645 3.584,1.691 6.612,3.276 7.841,4.312 1.177,0.991 1.757,1.818 2.003,2.495 C 7.819,-16.607 2.558,-5.436 0,0"
             style="fill:#337abe;fill-opacity:1;fill-rule:nonzero;stroke:none"
             id="path212"
             inkscape:connector-curvature="0" /></g><g
           id="g214"
           transform="translate(87.7061,46.7759)"><path
             d="m 0,0 c 0,0 10.612,4.243 18.516,7.972 -1.219,1.721 -2.575,3.64 -3.988,5.645 C 10.536,9.64 0,0 0,0"
             style="fill:#ee3338;fill-opacity:1;fill-rule:nonzero;stroke:none"
             id="path216"
             inkscape:connector-curvature="0" /></g><g
           id="g218"
           transform="translate(76.3994,77.0977)"><path
             d="m 0,0 c 3.091,-1.135 14.63,-3.659 14.497,-4.672 -0.166,-1.262 -11.074,-0.022 -14.543,0.216 -0.191,0.013 -0.016,-0.677 0.162,-0.746 4.656,-1.81 17.705,-2.529 19.417,-3.021 0.149,-0.043 0.285,-0.085 0.426,-0.127 -1.634,2.328 -3.177,4.528 -4.501,6.418 C 9.936,-0.646 2.92,0.899 0.382,1.067 0.099,1.086 -0.266,0.098 0,0"
             style="fill:#ee3338;fill-opacity:1;fill-rule:nonzero;stroke:none"
             id="path220"
             inkscape:connector-curvature="0" /></g><g
           id="g222"
           transform="translate(416.6562,38.2256)"><path
             d="m 0,0 c 0.702,1.489 2.946,3.331 4.637,3.41 1.889,0.088 4.5,-0.534 5.711,-2.079 1.135,-1.448 2.368,-3.719 4.423,-3.791 2.006,-0.071 4.202,0.473 5.101,2.439 1.2,2.626 -5.787,3.736 -7.353,4.335 -3.057,1.17 -5.707,2.254 -7.581,5.093 -1.254,1.899 -1.277,3.836 -0.994,6.046 0.28,2.177 0.814,4.013 2.261,5.697 1.429,1.662 3.332,2.746 5.348,3.568 1.953,0.797 4.204,0.665 6.269,0.501 2.222,-0.177 3.885,-1.158 5.696,-2.417 1.824,-1.267 2.849,-2.818 3.509,-4.953 0.329,-1.067 0.214,-1.735 -0.402,-2.664 -0.538,-0.811 -0.929,-1.683 -2.147,-2.243 -1.288,-0.593 -3.479,0.392 -4.682,0.848 -1.023,0.387 -1.83,1.075 -2.79,1.597 -0.547,0.297 -1.39,0.809 -2.039,0.578 -0.618,-0.219 -1.805,-1.143 -1.522,-1.916 0.294,-0.804 1.499,-2.105 2.384,-2.257 1.418,-0.242 2.836,-0.485 4.254,-0.727 0.895,-0.153 4.563,-1.337 5.473,-1.896 1.746,-1.072 3.023,-2.055 4.081,-3.845 0.975,-1.651 2.088,-4.063 1.774,-6.02 -0.286,-1.784 -0.877,-4.041 -2.027,-5.468 -1.223,-1.521 -2.758,-2.946 -4.376,-4.037 -3.292,-2.218 -7.361,-3.319 -11.313,-2.853 -1.984,0.233 -4.065,0.566 -5.934,1.296 C 6.124,-11.118 4.286,-9.465 3.2,-8.112 2.268,-6.951 1.332,-5.896 0.82,-4.495 0.41,-3.371 -0.564,-1.195 0,0"
             style="fill:#609ba8;fill-opacity:1;fill-rule:nonzero;stroke:none"
             id="path224"
             inkscape:connector-curvature="0" /></g></g></g></g></svg>