<?xml version="1.0" encoding="UTF-8" standalone="no"?>
<!-- Created with Inkscape (http://www.inkscape.org/) -->

<svg
   xmlns:dc="http://purl.org/dc/elements/1.1/"
   xmlns:cc="http://creativecommons.org/ns#"
   xmlns:rdf="http://www.w3.org/1999/02/22-rdf-syntax-ns#"
   xmlns:svg="http://www.w3.org/2000/svg"
   xmlns="http://www.w3.org/2000/svg"
   xmlns:sodipodi="http://sodipodi.sourceforge.net/DTD/sodipodi-0.dtd"
   xmlns:inkscape="http://www.inkscape.org/namespaces/inkscape"
   id="svg2"
   version="1.1"
   inkscape:version="0.91 r13725"
   xml:space="preserve"
   width="449.21124"
   height="287.75"
   viewBox="0 0 449.21124 287.75"
   sodipodi:docname="mail.svg"><metadata
     id="metadata8"><rdf:RDF><cc:Work
         rdf:about=""><dc:format>image/svg+xml</dc:format><dc:type
           rdf:resource="http://purl.org/dc/dcmitype/StillImage" /><dc:title></dc:title></cc:Work></rdf:RDF></metadata><defs
     id="defs6"><clipPath
       clipPathUnits="userSpaceOnUse"
       id="clipPath16"><path
         d="m 0,230.2 359.369,0 0,-230.2 L 0,0 0,230.2 Z"
         id="path18"
         inkscape:connector-curvature="0" /></clipPath></defs><sodipodi:namedview
     pagecolor="#ffffff"
     bordercolor="#666666"
     borderopacity="1"
     objecttolerance="10"
     gridtolerance="10"
     guidetolerance="10"
     inkscape:pageopacity="0"
     inkscape:pageshadow="2"
     inkscape:window-width="697"
     inkscape:window-height="480"
     id="namedview4"
     showgrid="false"
     inkscape:zoom="0.82015639"
     inkscape:cx="224.60562"
     inkscape:cy="143.875"
     inkscape:window-x="0"
     inkscape:window-y="0"
     inkscape:window-maximized="0"
     inkscape:current-layer="g10" /><g
     id="g10"
     inkscape:groupmode="layer"
     inkscape:label="Vector Smart Object1"
     transform="matrix(1.25,0,0,-1.25,0,287.75)"><g
       id="g12"><g
         id="g14"
         clip-path="url(#clipPath16)"><path
           d="m 0,0 0,195.9 c 2.242,-1.54 4.096,-2.773 5.91,-4.063 56.544,-40.207 113.106,-80.387 169.565,-120.711 3.265,-2.333 5.272,-2.32 8.543,0.016 56.326,40.222 112.76,80.293 169.171,120.395 1.87,1.328 3.755,2.634 6.18,4.334 L 359.369,0 0,0 Z"
           style="fill:#3aaffe;fill-opacity:1;fill-rule:evenodd;stroke:none"
           id="path20"
           inkscape:connector-curvature="0" /><g
           id="g22"
           transform="translate(2.1445,230.2002)"><path
             d="m 0,0 354.895,0 c -1.734,-1.487 -2.72,-2.479 -3.843,-3.276 -56.47,-40.044 -112.972,-80.043 -169.376,-120.181 -3.14,-2.234 -5.109,-2.156 -8.199,0.042 C 117.069,-83.283 60.57,-43.28 4.096,-3.24 3.026,-2.482 2.034,-1.615 0,0"
             style="fill:#3aaffe;fill-opacity:1;fill-rule:evenodd;stroke:none"
             id="path24"
             inkscape:connector-curvature="0" /></g></g></g></g></svg>