<?xml version="1.0" encoding="UTF-8" standalone="no"?>
<!-- Created with Inkscape (http://www.inkscape.org/) -->

<svg
   xmlns:dc="http://purl.org/dc/elements/1.1/"
   xmlns:cc="http://creativecommons.org/ns#"
   xmlns:rdf="http://www.w3.org/1999/02/22-rdf-syntax-ns#"
   xmlns:svg="http://www.w3.org/2000/svg"
   xmlns="http://www.w3.org/2000/svg"
   xmlns:sodipodi="http://sodipodi.sourceforge.net/DTD/sodipodi-0.dtd"
   xmlns:inkscape="http://www.inkscape.org/namespaces/inkscape"
   id="svg2"
   version="1.1"
   inkscape:version="0.91 r13725"
   xml:space="preserve"
   viewBox="0 0 450.05124 449.9725"
   sodipodi:docname="second-mnu-4.svg"><metadata
     id="metadata8"><rdf:RDF><cc:Work
         rdf:about=""><dc:format>image/svg+xml</dc:format><dc:type
           rdf:resource="http://purl.org/dc/dcmitype/StillImage" /><dc:title></dc:title></cc:Work></rdf:RDF></metadata><defs
     id="defs6"><clipPath
       clipPathUnits="userSpaceOnUse"
       id="clipPath16"><path
         d="m 0,359.978 360.041,0 L 360.041,0 0,0 0,359.978 Z"
         id="path18"
         inkscape:connector-curvature="0" /></clipPath></defs><sodipodi:namedview
     pagecolor="#ffffff"
     bordercolor="#666666"
     borderopacity="1"
     objecttolerance="10"
     gridtolerance="10"
     guidetolerance="10"
     inkscape:pageopacity="0"
     inkscape:pageshadow="2"
     inkscape:window-width="697"
     inkscape:window-height="480"
     id="namedview4"
     showgrid="false"
     inkscape:zoom="0.52447649"
     inkscape:cx="225.02562"
     inkscape:cy="224.98625"
     inkscape:window-x="0"
     inkscape:window-y="0"
     inkscape:window-maximized="0"
     inkscape:current-layer="g10" /><g
     id="g10"
     inkscape:groupmode="layer"
     inkscape:label="Vector Smart Object3"
     transform="matrix(1.25,0,0,-1.25,0,449.9725)"><g
       id="g12"><g
         id="g14"
         clip-path="url(#clipPath16)"><g
           id="g20"
           transform="translate(87.394,279.6387)"><path
             d="m 0,0 c -0.425,-0.009 -0.851,-0.018 -1.276,-0.026 -3.662,-10.39 -7.325,-20.782 -11.122,-31.558 l 23.262,0 C 7.122,-20.706 3.561,-10.353 0,0 m 43.621,-67.43 c -6.417,0 -12.2,-0.148 -17.962,0.128 -1.13,0.055 -2.502,1.559 -3.192,2.731 -1.005,1.707 -1.53,3.704 -2.193,5.601 -4.217,12.079 -4.211,12.081 -17.221,12.08 -5.45,0 -10.91,-0.218 -16.344,0.077 -3.44,0.186 -5.319,-1.064 -6.107,-4.281 -0.096,-0.388 -0.236,-0.768 -0.37,-1.148 -6.107,-17.418 -6.119,-17.425 -25.365,-14.582 3.947,10.386 7.86,20.644 11.745,30.913 6.971,18.431 13.977,36.848 20.839,55.319 1.174,3.161 2.601,4.652 6.365,4.653 15.943,0.001 15.93,0.153 21.553,-14.854 8.749,-23.349 17.527,-46.686 26.263,-70.039 0.689,-1.839 1.143,-3.765 1.989,-6.598"
             style="fill:#5898a7;fill-opacity:1;fill-rule:evenodd;stroke:none"
             id="path22"
             inkscape:connector-curvature="0" /></g><g
           id="g24"
           transform="translate(205.6074,103.6074)"><path
             d="m 0,0 c -0.625,-36.09 28.931,-68.895 69.382,-69.535 37.464,-0.594 69.563,30.669 70.008,68.522 0.451,38.304 -30.228,69.409 -68.949,69.908 C 31.615,69.396 0.383,38.85 0,0 m 57.503,241.05 -247.763,0 0,-329.334 247.382,0 c 1.358,4.234 -0.84,5.049 -4.112,5.713 -43.224,8.768 -72.165,48.175 -67.539,91.8 3.764,35.503 30.609,64.883 67.002,72.761 4.308,0.932 5.122,2.445 5.112,6.409 -0.126,49.156 -0.082,98.31 -0.082,147.465 l 0,5.186 z M 72.489,84.024 c 50.055,-3.041 79.865,-42.233 81.846,-80.359 2.022,-38.917 -27.116,-84.816 -81.859,-88.406 0,-3.563 0.104,-7.183 -0.025,-10.793 -0.185,-5.191 -2.905,-7.804 -8.159,-8.046 -1.164,-0.053 -2.332,-0.013 -3.499,-0.013 -84.969,0 -169.939,-10e-4 -254.909,0.001 -9.399,0 -11.49,2.063 -11.49,11.338 -0.002,112.46 -0.002,224.92 0,337.38 0,9.061 2.149,11.242 11.089,11.242 85.303,0.003 170.606,0.003 255.909,0.001 9.1,0 11.094,-1.996 11.095,-11.152 0.005,-51.649 0.002,-103.297 0.002,-154.946 l 0,-6.247 z"
             style="fill:#5898a7;fill-opacity:1;fill-rule:evenodd;stroke:none"
             id="path26"
             inkscape:connector-curvature="0" /></g><g
           id="g28"
           transform="translate(106.4341,117.9775)"><path
             d="m 0,0 c 17.808,0 35.615,0.001 53.423,-0.001 1.165,0 2.336,0.062 3.494,-0.033 4.546,-0.374 7.716,-3.613 7.574,-7.677 -0.136,-3.902 -3.18,-6.964 -7.533,-7.19 -3.817,-0.199 -7.653,-0.061 -11.481,-0.061 -32.786,-0.002 -65.572,-0.002 -98.358,0 -1.331,0 -2.673,-0.079 -3.992,0.052 -4.305,0.426 -7.38,3.548 -7.395,7.405 -0.015,3.841 3.059,7.139 7.354,7.418 3.812,0.248 7.652,0.084 11.479,0.085 C -30.29,0.003 -15.145,0 0,0"
             style="fill:#5898a7;fill-opacity:1;fill-rule:evenodd;stroke:none"
             id="path30"
             inkscape:connector-curvature="0" /></g><g
           id="g32"
           transform="translate(106.4214,164.1055)"><path
             d="m 0,0 c 18.305,0.002 36.61,0.013 54.915,-0.003 5.949,-0.006 9.392,-2.558 9.584,-7.013 0.196,-4.56 -3.565,-7.915 -9.526,-7.925 -36.444,-0.07 -72.888,-0.038 -109.331,-0.024 -0.989,0 -1.991,0.119 -2.964,0.302 -4.333,0.814 -6.865,3.428 -6.838,7.851 0.024,4.08 3.403,6.777 8.247,6.791 C -37.275,0.027 -18.638,-0.002 0,0"
             style="fill:#5898a7;fill-opacity:1;fill-rule:evenodd;stroke:none"
             id="path34"
             inkscape:connector-curvature="0" /></g><g
           id="g36"
           transform="translate(106.542,56.8818)"><path
             d="m 0,0 c -18.307,0 -36.613,-0.018 -54.919,0.01 -5.884,0.008 -9.38,2.738 -9.441,7.219 -0.059,4.367 3.662,7.701 9.269,7.711 36.779,0.072 73.558,0.075 110.337,-0.002 5.623,-0.011 9.233,-3.342 9.139,-7.771 C 64.289,2.7 60.807,0.017 54.919,0.009 36.613,-0.016 18.306,0 0,0"
             style="fill:#5898a7;fill-opacity:1;fill-rule:evenodd;stroke:none"
             id="path38"
             inkscape:connector-curvature="0" /></g><g
           id="g40"
           transform="translate(198.4858,256.9766)"><path
             d="m 0,0 c 9.493,0 18.985,0.035 28.478,-0.014 5.438,-0.028 8.816,-2.824 8.962,-7.241 0.152,-4.633 -3.332,-7.685 -8.987,-7.694 -19.152,-0.031 -38.304,-0.034 -57.456,10e-4 -5.835,0.01 -9.341,2.891 -9.341,7.468 0,4.555 3.528,7.435 9.366,7.466 C -19.319,0.038 -9.659,0 0,0"
             style="fill:#5898a7;fill-opacity:1;fill-rule:evenodd;stroke:none"
             id="path42"
             inkscape:connector-curvature="0" /></g><g
           id="g44"
           transform="translate(197.9331,288.125)"><path
             d="m 0,0 c -8.987,0 -17.974,-0.047 -26.96,0.037 -1.964,0.019 -4.039,0.189 -5.861,0.846 -3.511,1.265 -5.386,4.057 -4.769,7.769 0.59,3.552 2.72,6.219 6.68,6.235 20.636,0.079 41.271,0.096 61.907,0.027 4.141,-0.015 6.501,-2.722 6.879,-6.554 0.38,-3.85 -1.5,-6.8 -5.495,-7.78 C 30.632,0.151 28.771,0.035 26.96,0.024 17.974,-0.029 8.987,0 0,0"
             style="fill:#5898a7;fill-opacity:1;fill-rule:evenodd;stroke:none"
             id="path46"
             inkscape:connector-curvature="0" /></g><g
           id="g48"
           transform="translate(197.7842,195.8828)"><path
             d="m 0,0 c -9.483,-0.001 -18.967,-0.026 -28.451,0.009 -5.579,0.021 -8.969,2.637 -9.175,6.954 -0.208,4.349 3.431,7.842 9.014,7.949 10.312,0.2 20.63,0.067 30.945,0.068 8.819,10e-4 17.639,0.108 26.454,-0.042 6.139,-0.106 10.124,-3.789 9.275,-8.539 C 37.289,2.077 34.507,-0.072 29.948,-0.029 19.966,0.065 9.983,0 0,0"
             style="fill:#5898a7;fill-opacity:1;fill-rule:evenodd;stroke:none"
             id="path50"
             inkscape:connector-curvature="0" /></g><g
           id="g52"
           transform="translate(259.2998,85.6377)"><path
             d="m 0,0 c 19.138,16.924 37.839,33.461 56.541,49.997 0.624,0.552 1.231,1.126 1.891,1.63 3.695,2.822 8.102,2.687 10.791,-0.31 2.699,-3.009 2.539,-7.583 -0.875,-10.742 C 61.508,34.246 54.459,28.144 47.482,21.963 33.899,9.931 20.278,-2.06 6.729,-14.131 c -6.697,-5.967 -10.061,-5.762 -15.581,1.148 -8.727,10.922 -17.488,21.818 -26.227,32.732 -0.728,0.908 -1.426,1.844 -2.089,2.8 -3.026,4.368 -2.68,8.241 0.96,10.977 3.631,2.73 7.648,2.122 10.928,-1.934 C -18.27,22.921 -11.375,14.158 -4.426,5.438 -3.086,3.758 -1.713,2.104 0,0"
             style="fill:#5898a7;fill-opacity:1;fill-rule:evenodd;stroke:none"
             id="path54"
             inkscape:connector-curvature="0" /></g></g></g></g></svg>