<?xml version="1.0" encoding="UTF-8" standalone="no"?>
<svg
   xmlns:dc="http://purl.org/dc/elements/1.1/"
   xmlns:cc="http://creativecommons.org/ns#"
   xmlns:rdf="http://www.w3.org/1999/02/22-rdf-syntax-ns#"
   xmlns:svg="http://www.w3.org/2000/svg"
   xmlns="http://www.w3.org/2000/svg"
   xmlns:sodipodi="http://sodipodi.sourceforge.net/DTD/sodipodi-0.dtd"
   xmlns:inkscape="http://www.inkscape.org/namespaces/inkscape"
   width="261.491pt"
   height="316.04pt"
   viewBox="0 0 261.491 316.04"
   version="1.1"
   id="svg2"
   inkscape:version="0.91 r13725"
   sodipodi:docname="second-mnu-2.svg">
  <metadata
     id="metadata27">
    <rdf:RDF>
      <cc:Work
         rdf:about="">
        <dc:format>image/svg+xml</dc:format>
        <dc:type
           rdf:resource="http://purl.org/dc/dcmitype/StillImage" />
        <dc:title></dc:title>
      </cc:Work>
    </rdf:RDF>
  </metadata>
  <sodipodi:namedview
     pagecolor="#ffffff"
     bordercolor="#666666"
     borderopacity="1"
     objecttolerance="10"
     gridtolerance="10"
     guidetolerance="10"
     inkscape:pageopacity="0"
     inkscape:pageshadow="2"
     inkscape:window-width="765"
     inkscape:window-height="480"
     id="namedview25"
     showgrid="false"
     inkscape:zoom="0.59739272"
     inkscape:cx="163.43187"
     inkscape:cy="197.52501"
     inkscape:window-x="601"
     inkscape:window-y="565"
     inkscape:window-maximized="0"
     inkscape:current-layer="svg2" />
  <defs
     id="defs4">
    <clipPath
       id="clip1">
      <path
         d="M 42 32 L 249 32 L 249 296 L 42 296 Z M 42 32 "
         id="path7" />
    </clipPath>
    <clipPath
       id="clip2">
      <path
         d="M 198.492188 17.039063 L 202.492188 263.242188 L 20.339844 263.242188 L 20.339844 316.039063 L 261.492188 316.039063 L 261.492188 17.039063 Z M 198.492188 17.039063 "
         id="path10" />
    </clipPath>
  </defs>
  <g
     id="surface83">
    <path
       style=" stroke:none;fill-rule:evenodd;fill:#5898a7;fill-opacity:1;"
       d="M 101.875 195.25 C 102.269531 195.378906 102.664063 195.511719 103.054688 195.640625 C 104.789063 193.023438 106.519531 190.40625 109.066406 186.558594 C 105.582031 187.183594 103.625 187.535156 101.875 187.851563 Z M 89.097656 192.136719 C 84.320313 195.113281 80.96875 198.109375 80.15625 203.066406 C 79.664063 206.074219 81.125 208.050781 84.242188 207.753906 C 86.894531 207.503906 90.863281 208.351563 90.683594 203.742188 C 90.542969 200.1875 89.746094 196.65625 89.097656 192.136719 M 88.421875 165.785156 L 72.21875 165.785156 L 72.21875 153.863281 L 88.425781 153.863281 C 88.660156 150.027344 88.867188 146.632813 89.117188 142.539063 C 93.625 142.785156 97.980469 143.023438 102.5 143.269531 L 102.5 153.269531 C 112 152.191406 121.488281 151.113281 131.464844 149.976563 C 131.871094 153.9375 132.277344 157.9375 132.753906 162.59375 C 122.203125 163.539063 112.148438 164.445313 101.703125 165.386719 L 101.703125 176.84375 C 106.089844 175.46875 109.980469 174.375 113.777344 173.015625 C 115.976563 172.226563 124.433594 174.789063 125.996094 176.746094 C 126.746094 177.6875 128.011719 178.289063 129.140625 178.84375 C 138.074219 183.214844 142.828125 190.320313 142.746094 200.277344 C 142.664063 210.355469 138.117188 217.789063 128.707031 221.910156 C 126.585938 222.84375 124.433594 223.855469 122.191406 224.347656 C 110.679688 226.863281 112.8125 228.117188 105.734375 216.84375 C 108.546875 216.152344 111.316406 215.78125 113.835938 214.777344 C 117.351563 213.378906 121.117188 212.058594 124 209.738281 C 131.390625 203.792969 130.136719 194.050781 121.8125 189.792969 C 117.507813 195.433594 113.382813 201.214844 108.855469 206.667969 C 102.777344 213.988281 94.738281 218.269531 85.425781 219.796875 C 71.597656 222.066406 64.152344 213.09375 68.425781 199.597656 C 70.996094 191.488281 76.574219 185.773438 83.953125 182.207031 C 88.273438 180.121094 89.382813 177.636719 88.5 173.28125 C 88.050781 171.0625 88.421875 168.679688 88.421875 165.785156 "
       id="path13" />
    <path
       style=" stroke:none;fill-rule:evenodd;fill:#5898a7;fill-opacity:1;"
       d="M 105.609375 57.734375 C 105.257813 57.742188 104.90625 57.75 104.558594 57.757813 C 101.535156 66.332031 98.511719 74.910156 95.378906 83.800781 L 114.574219 83.800781 C 111.488281 74.824219 108.550781 66.28125 105.609375 57.734375 M 141.609375 113.386719 C 136.316406 113.386719 131.542969 113.507813 126.785156 113.28125 C 125.855469 113.234375 124.722656 111.996094 124.152344 111.027344 C 123.324219 109.617188 122.890625 107.96875 122.34375 106.402344 C 118.863281 96.433594 118.867188 96.433594 108.128906 96.433594 C 103.632813 96.433594 99.125 96.613281 94.640625 96.371094 C 91.800781 96.214844 90.25 97.25 89.601563 99.902344 C 89.523438 100.222656 89.40625 100.539063 89.296875 100.851563 C 84.253906 115.226563 84.246094 115.230469 68.359375 112.886719 C 71.617188 104.3125 74.847656 95.847656 78.054688 87.375 C 83.808594 72.164063 89.589844 56.960938 95.253906 41.71875 C 96.222656 39.109375 97.398438 37.878906 100.507813 37.878906 C 113.664063 37.878906 113.652344 37.75 118.292969 50.136719 C 125.515625 69.40625 132.761719 88.667969 139.96875 107.941406 C 140.539063 109.457031 140.914063 111.046875 141.609375 113.386719 "
       id="path15" />
    <path
       style=" stroke:none;fill-rule:evenodd;fill:#5898a7;fill-opacity:1;"
       d="M 193.726563 137.484375 L 193.871094 60.65625 C 193.871094 60.65625 194.007813 31.335938 193.988281 16.675781 C 193.984375 15.234375 193.816406 13.792969 193.714844 12.222656 L 155.457031 12.222656 L 50.511719 12.265625 L 12.347656 12.265625 L 12.347656 251.015625 L 193.726563 251.015625 Z M 50.507813 0.0195313 L 178.820313 0.0195313 C 185.484375 0.0195313 192.152344 -0.0390625 198.816406 0.0429688 C 204.085938 0.105469 205.9375 2.015625 205.949219 7.355469 C 205.988281 22.003906 205.964844 52.1875 205.964844 52.1875 L 205.894531 129.828125 C 205.894531 129.828125 205.964844 213.160156 205.960938 254.824219 C 205.960938 261.824219 204.542969 263.242188 197.476563 263.246094 C 134.476563 263.25 71.480469 263.25 8.484375 263.242188 C 1.371094 263.242188 0.00390625 261.871094 0.00390625 254.824219 C 0 172.828125 0 90.828125 0.00390625 8.832031 C 0.00390625 1.464844 1.402344 0.0351563 8.652344 0.0273438 C 22.308594 0.0078125 50.507813 0.0195313 50.507813 0.0195313 "
       id="path17" />
    <g
       clip-path="url(#clip1)"
       clip-rule="nonzero"
       id="g19">
      <g
         clip-path="url(#clip2)"
         clip-rule="nonzero"
         id="g21">
        <path
           style=" stroke:none;fill-rule:evenodd;fill:#5898a7;fill-opacity:1;"
           d="M 235.886719 169.824219 L 236.03125 92.996094 C 236.03125 92.996094 236.167969 63.679688 236.148438 49.015625 C 236.144531 47.574219 235.976563 46.132813 235.875 44.566406 L 197.617188 44.566406 L 92.671875 44.605469 L 54.507813 44.605469 L 54.507813 283.355469 L 235.886719 283.355469 Z M 92.667969 32.359375 L 220.980469 32.359375 C 227.644531 32.363281 234.3125 32.304688 240.976563 32.382813 C 246.246094 32.445313 248.097656 34.355469 248.109375 39.695313 C 248.148438 54.347656 248.125 84.53125 248.125 84.53125 L 248.054688 162.167969 C 248.054688 162.167969 248.125 245.5 248.121094 287.164063 C 248.121094 294.164063 246.703125 295.585938 239.636719 295.585938 C 176.636719 295.59375 113.640625 295.59375 50.644531 295.585938 C 43.53125 295.585938 42.164063 294.210938 42.164063 287.164063 C 42.160156 205.167969 42.160156 123.171875 42.164063 41.171875 C 42.164063 33.808594 43.5625 32.375 50.8125 32.367188 C 64.46875 32.351563 92.667969 32.359375 92.667969 32.359375 "
           id="path23" />
      </g>
    </g>
  </g>
</svg>
