<?xml version="1.0" encoding="UTF-8" standalone="no"?>
<!-- Created with Inkscape (http://www.inkscape.org/) -->

<svg
   xmlns:dc="http://purl.org/dc/elements/1.1/"
   xmlns:cc="http://creativecommons.org/ns#"
   xmlns:rdf="http://www.w3.org/1999/02/22-rdf-syntax-ns#"
   xmlns:svg="http://www.w3.org/2000/svg"
   xmlns="http://www.w3.org/2000/svg"
   xmlns:sodipodi="http://sodipodi.sourceforge.net/DTD/sodipodi-0.dtd"
   xmlns:inkscape="http://www.inkscape.org/namespaces/inkscape"
   id="svg2"
   version="1.1"
   inkscape:version="0.91 r13725"
   xml:space="preserve"
   viewBox="0 0 449.05249 395"
   sodipodi:docname="second-mnu-1.svg"><metadata
     id="metadata8"><rdf:RDF><cc:Work
         rdf:about=""><dc:format>image/svg+xml</dc:format><dc:type
           rdf:resource="http://purl.org/dc/dcmitype/StillImage" /><dc:title></dc:title></cc:Work></rdf:RDF></metadata><defs
     id="defs6"><clipPath
       clipPathUnits="userSpaceOnUse"
       id="clipPath16"><path
         d="m 0,271.722 359.242,0 L 359.242,0 0,0 0,271.722 Z"
         id="path18"
         inkscape:connector-curvature="0" /></clipPath></defs><sodipodi:namedview
     pagecolor="#ffffff"
     bordercolor="#666666"
     borderopacity="1"
     objecttolerance="10"
     gridtolerance="10"
     guidetolerance="10"
     inkscape:pageopacity="0"
     inkscape:pageshadow="2"
     id="namedview4"
     showgrid="false"
     inkscape:zoom="2.2481013"
     inkscape:cx="209.40237"
     inkscape:cy="219.47907"
     inkscape:window-x="-8"
     inkscape:window-y="-8"
     inkscape:window-maximized="1"
     inkscape:current-layer="g10"
     inkscape:snap-page="false"
     inkscape:window-width="1920"
     inkscape:window-height="1057" /><g
     id="g10"
     inkscape:groupmode="layer"
     inkscape:label="Vector Smart Object"
     transform="matrix(1.25,0,0,-1.25,0,339.6525)"><g
       id="g12"
       transform="matrix(0.996,0,0,0.996,0.71843555,-21.595525)"><g
         id="g14"
         clip-path="url(#clipPath16)"><g
           id="g20"
           transform="translate(52.6411,126.7256)"><path
             d="m 0,0 c -5.154,0 -9.624,-0.021 -14.094,0.004 -21.328,0.118 -38.081,16.388 -38.336,37.806 -0.276,23.158 -0.288,46.325 0.004,69.482 0.266,21.085 17.488,37.667 38.617,37.682 45.323,0.031 90.646,0.028 135.969,0.001 21.447,-0.013 38.447,-16.451 38.743,-38.057 C 161.224,83.43 161.234,59.93 160.877,36.442 160.589,17.555 143.656,0.429 125.7,0.066 c -0.654,-0.012 -1.31,0.121 -2.274,0.215 l 0,15.302 c 15.268,3.217 21.57,11.113 21.573,26.942 0.004,20.329 0.017,40.659 -0.004,60.987 -0.017,16.201 -8.867,25.123 -24.88,25.124 -43.99,0.004 -87.98,0.005 -131.969,-0.001 -14.859,-0.001 -23.989,-7.591 -24.368,-22.384 -0.597,-23.3 -0.384,-46.641 0.241,-69.943 0.324,-12.07 10.095,-20.186 22.317,-20.207 9.644,-0.018 19.289,-0.004 29.56,-0.004 l 0,-29.799 c 7.612,9.011 14.353,16.726 20.769,24.703 2.908,3.615 5.888,5.478 10.857,5.242 10.258,-0.485 20.556,-0.146 31.079,-0.146 L 78.601,0 C 70.928,0 63.314,-0.371 55.757,0.127 50.522,0.473 47.171,-1.319 43.976,-5.328 36.403,-14.828 28.372,-23.961 20.566,-33.277 15.979,-38.753 11.798,-40.449 6.871,-38.681 2.004,-36.934 0.001,-33.144 0,-25.667 -0.001,-17.354 0,-9.04 0,0"
             style="fill:#5898a7;fill-opacity:1;fill-rule:evenodd;stroke:none"
             id="path22"
             inkscape:connector-curvature="0" /></g><g
           id="g24"
           transform="translate(306.604,39.3662)"><path
             d="m 0,0 c 0,-9.32 0.009,-17.974 -0.002,-26.627 -0.009,-6.601 -2.017,-10.002 -6.995,-11.924 -4.837,-1.867 -8.511,-0.614 -12.987,4.664 -8.508,10.034 -17.02,20.068 -25.372,30.231 -2.208,2.686 -4.582,3.752 -8.092,3.728 -22.331,-0.149 -44.664,-0.093 -66.996,-0.07 -23.769,0.023 -40.185,15.643 -40.531,39.274 -0.337,22.993 -0.259,45.997 0.087,68.991 0.283,18.802 15.914,35.052 34.461,36.573 0.807,0.066 1.632,-0.094 2.877,-0.178 l 0,-15.608 c -1.768,-0.348 -3.718,-0.562 -5.563,-1.122 -9.342,-2.837 -15.769,-11.461 -15.837,-21.902 -0.145,-22.331 -0.125,-44.664 -0.015,-66.995 0.064,-12.901 10.543,-23.161 23.203,-22.866 25.152,0.587 50.327,0.098 75.491,0.257 3.686,0.023 6.082,-1.012 8.417,-3.924 6.755,-8.423 13.878,-16.55 21.61,-25.683 l 0,29.17 c 1.88,0.141 3.299,0.334 4.719,0.339 8.667,0.028 17.333,-0.023 25.999,0.025 11.482,0.063 21.185,8.413 21.527,19.928 0.623,20.976 0.425,41.977 0.519,62.968 0.014,3.158 -0.105,6.33 -0.403,9.474 -1.031,10.912 -9.192,19.319 -20.138,19.799 -12.64,0.554 -25.312,0.413 -37.971,0.459 -16.832,0.063 -33.664,0.016 -50.497,0.016 l -6.089,0 0,15.569 c 1.966,0.127 3.878,0.359 5.791,0.36 28.832,0.023 57.664,0.045 86.495,0.007 21.619,-0.029 38.459,-16.325 38.721,-37.962 C 52.709,83.977 52.706,60.973 52.43,37.978 52.173,16.62 35.64,0.454 14.16,0.014 9.683,-0.078 5.202,0 0,0"
             style="fill:#5898a7;fill-opacity:1;fill-rule:evenodd;stroke:none"
             id="path26"
             inkscape:connector-curvature="0" /></g><g
           id="g28"
           transform="translate(250.6646,106.3574)"><path
             d="M 0,0 C 0.393,-0.13 0.786,-0.261 1.179,-0.391 2.911,2.226 4.642,4.842 7.191,8.692 3.707,8.066 1.749,7.714 0,7.399 L 0,0 Z m -12.779,3.113 c -4.777,-2.977 -8.129,-5.975 -8.941,-10.929 -0.493,-3.011 0.97,-4.985 4.084,-4.689 2.655,0.252 6.623,-0.596 6.443,4.012 -0.139,3.556 -0.939,7.085 -1.586,11.606 m -0.676,26.352 -16.202,0 0,11.921 16.207,0 c 0.234,3.836 0.441,7.231 0.691,11.323 4.508,-0.246 8.862,-0.483 13.383,-0.73 l 0,-10 c 9.501,1.08 18.986,2.158 28.963,3.292 0.406,-3.958 0.815,-7.958 1.291,-12.614 C 20.325,31.708 10.271,30.804 -0.174,29.864 l 0,-11.459 c 4.388,1.375 8.278,2.47 12.073,3.829 2.201,0.789 10.657,-1.775 12.221,-3.732 0.751,-0.94 2.014,-1.543 3.144,-2.097 C 36.196,12.036 40.953,4.927 40.87,-5.03 40.787,-15.105 36.239,-22.54 26.831,-26.663 c -2.123,-0.931 -4.272,-1.944 -6.516,-2.435 -11.511,-2.518 -9.378,-3.77 -16.456,7.502 2.81,0.692 5.582,1.065 8.102,2.067 3.515,1.398 7.28,2.721 10.163,5.041 7.39,5.945 6.136,15.688 -2.189,19.944 -4.303,-5.639 -8.428,-11.423 -12.956,-16.874 -6.08,-7.32 -14.119,-11.603 -23.428,-13.131 -13.83,-2.269 -21.275,6.705 -17,20.201 2.568,8.108 8.146,13.822 15.527,17.389 4.318,2.088 5.427,4.571 4.546,8.926 -0.449,2.219 -0.079,4.603 -0.079,7.498"
             style="fill:#5898a7;fill-opacity:1;fill-rule:evenodd;stroke:none"
             id="path30"
             inkscape:connector-curvature="0" /></g><g
           id="g32"
           transform="translate(103.9761,225.0605)"><path
             d="m 0,0 c -0.351,-0.007 -0.702,-0.015 -1.053,-0.021 -3.022,-8.576 -6.045,-17.152 -9.179,-26.045 l 19.198,0 C 5.878,-17.089 2.939,-8.544 0,0 m 36,-55.65 c -5.295,0 -10.068,-0.122 -14.824,0.105 -0.932,0.045 -2.064,1.286 -2.634,2.254 -0.829,1.408 -1.263,3.057 -1.81,4.623 -3.48,9.969 -3.475,9.971 -14.212,9.97 -4.498,0 -9.005,-0.181 -13.489,0.062 -2.84,0.155 -4.39,-0.878 -5.04,-3.532 -0.079,-0.321 -0.196,-0.635 -0.305,-0.948 -5.041,-14.375 -5.051,-14.381 -20.935,-12.034 3.258,8.572 6.487,17.038 9.693,25.512 5.754,15.211 11.536,30.411 17.199,45.656 0.969,2.609 2.147,3.838 5.253,3.839 13.158,0.001 13.147,0.127 17.788,-12.258 7.221,-19.27 14.466,-38.531 21.676,-57.804 0.568,-1.518 0.943,-3.108 1.64,-5.445"
             style="fill:#5898a7;fill-opacity:1;fill-rule:evenodd;stroke:none"
             id="path34"
             inkscape:connector-curvature="0" /></g></g></g></g></svg>