<?xml version="1.0" encoding="UTF-8" standalone="no"?>
<!-- Created with Inkscape (http://www.inkscape.org/) -->

<svg
   xmlns:dc="http://purl.org/dc/elements/1.1/"
   xmlns:cc="http://creativecommons.org/ns#"
   xmlns:rdf="http://www.w3.org/1999/02/22-rdf-syntax-ns#"
   xmlns:svg="http://www.w3.org/2000/svg"
   xmlns="http://www.w3.org/2000/svg"
   xmlns:sodipodi="http://sodipodi.sourceforge.net/DTD/sodipodi-0.dtd"
   xmlns:inkscape="http://www.inkscape.org/namespaces/inkscape"
   id="svg2"
   version="1.1"
   inkscape:version="0.91 r13725"
   xml:space="preserve"
   viewBox="0 0 257.46375 329.06"
   sodipodi:docname="second-mnu-3.svg"><metadata
     id="metadata8"><rdf:RDF><cc:Work
         rdf:about=""><dc:format>image/svg+xml</dc:format><dc:type
           rdf:resource="http://purl.org/dc/dcmitype/StillImage" /><dc:title></dc:title></cc:Work></rdf:RDF></metadata><defs
     id="defs6"><clipPath
       clipPathUnits="userSpaceOnUse"
       id="clipPath16"><path
         d="m 0,263.248 205.971,0 L 205.971,0 0,0 0,263.248 Z"
         id="path18"
         inkscape:connector-curvature="0" /></clipPath></defs><sodipodi:namedview
     pagecolor="#ffffff"
     bordercolor="#666666"
     borderopacity="1"
     objecttolerance="10"
     gridtolerance="10"
     guidetolerance="10"
     inkscape:pageopacity="0"
     inkscape:pageshadow="2"
     inkscape:window-width="765"
     inkscape:window-height="480"
     id="namedview4"
     showgrid="false"
     inkscape:zoom="0.71719444"
     inkscape:cx="128.73187"
     inkscape:cy="164.53"
     inkscape:window-x="497"
     inkscape:window-y="212"
     inkscape:window-maximized="0"
     inkscape:current-layer="g10" /><g
     id="g10"
     inkscape:groupmode="layer"
     inkscape:label="Vector Smart Object2"
     transform="matrix(1.25,0,0,-1.25,0,329.06)"><g
       id="g12"
       transform="translate(1.2133407e-4,9.765625e-7)"><g
         id="g14"
         clip-path="url(#clipPath16)"><g
           id="g20"
           transform="translate(193.7271,125.7656)"><path
             d="m 0,0 0.145,76.828 c 0,0 0.136,29.318 0.116,43.979 -0.002,1.443 -0.173,2.885 -0.274,4.452 l -38.258,0 -104.946,-0.042 -38.163,0 0,-238.75 181.38,0 L 0,0 Z m -143.22,137.463 104.949,0 23.363,0 c 6.666,-0.001 13.334,0.058 19.999,-0.022 5.266,-0.062 7.119,-1.972 7.132,-7.312 0.037,-14.651 0.013,-44.835 0.013,-44.835 L 12.167,7.655 c 0,0 0.072,-83.331 0.067,-124.996 -10e-4,-7 -1.419,-8.419 -8.486,-8.42 -62.998,-0.007 -125.995,-0.007 -188.992,10e-4 -7.111,0 -8.48,1.372 -8.48,8.419 -0.004,81.998 -0.004,163.995 -0.001,245.993 0,7.365 1.399,8.798 8.651,8.806 13.654,0.016 41.854,0.005 41.854,0.005"
             style="fill:#5898a7;fill-opacity:1;fill-rule:evenodd;stroke:none"
             id="path22"
             inkscape:connector-curvature="0" /></g><g
           id="g24"
           transform="translate(102.5498,218.4023)"><path
             d="m 0,0 c 20.828,0 41.655,0 62.482,-0.002 1.333,0 2.684,0.118 3.995,-0.057 3.452,-0.459 5.558,-2.624 5.564,-5.982 0.005,-3.357 -2.006,-5.55 -5.57,-5.849 -1.325,-0.111 -2.663,-0.089 -3.995,-0.09 -41.489,-0.004 -82.977,-0.004 -124.466,0.002 -1.498,0 -3.384,-0.473 -4.411,0.245 -1.964,1.374 -4.813,3.482 -4.768,5.219 0.056,2.149 2.439,4.497 4.311,6.222 0.837,0.771 2.88,0.283 4.376,0.284 C -41.655,0.003 -20.827,0 0,0"
             style="fill:#5898a7;fill-opacity:1;fill-rule:evenodd;stroke:none"
             id="path26"
             inkscape:connector-curvature="0" /></g><g
           id="g28"
           transform="translate(59.8457,71.126)"><path
             d="m 0,0 c 1.333,0 2.684,0.118 3.995,-0.057 3.452,-0.459 5.558,-2.624 5.563,-5.982 0.006,-3.357 -2.006,-5.55 -5.57,-5.849 -1.324,-0.111 -2.663,-0.09 -3.995,-0.091 -41.488,-0.003 21.024,-0.003 -20.465,0.003 -1.498,0 -3.384,-0.473 -4.411,0.245 -1.965,1.374 -4.814,3.482 -4.768,5.219 0.056,2.149 2.438,4.497 4.31,6.222 0.838,0.771 2.881,0.283 4.376,0.284 C -0.137,0.005 -20.827,0.002 0,0"
             style="fill:#5898a7;fill-opacity:1;fill-rule:evenodd;stroke:none"
             id="path30"
             inkscape:connector-curvature="0" /></g><g
           id="g32"
           transform="translate(102.5498,187.4023)"><path
             d="m 0,0 c 20.828,0 41.655,0 62.482,-0.002 1.333,0 2.684,0.118 3.995,-0.057 3.452,-0.459 5.558,-2.624 5.564,-5.982 0.005,-3.357 -2.006,-5.55 -5.57,-5.849 -1.325,-0.111 -2.663,-0.089 -3.995,-0.09 -41.489,-0.004 -82.977,-0.004 -124.466,0.002 -1.498,0 -3.384,-0.473 -4.411,0.245 -1.964,1.374 -4.813,3.482 -4.768,5.219 0.056,2.149 2.439,4.497 4.311,6.222 0.837,0.771 2.88,0.283 4.376,0.284 C -41.655,0.003 -20.827,0 0,0"
             style="fill:#5898a7;fill-opacity:1;fill-rule:evenodd;stroke:none"
             id="path34"
             inkscape:connector-curvature="0" /></g><g
           id="g36"
           transform="translate(102.5498,156.4023)"><path
             d="m 0,0 c 20.828,0 41.655,0 62.482,-0.002 1.333,0 2.684,0.118 3.995,-0.057 3.452,-0.459 5.558,-2.624 5.564,-5.982 0.005,-3.357 -2.006,-5.55 -5.57,-5.849 -1.325,-0.111 -2.663,-0.089 -3.995,-0.09 -41.489,-0.004 -82.977,-0.004 -124.466,0.002 -1.498,0 -3.384,-0.473 -4.411,0.245 -1.964,1.374 -4.813,3.482 -4.768,5.219 0.056,2.149 2.439,4.497 4.311,6.222 0.837,0.771 2.88,0.283 4.376,0.284 C -41.655,0.003 -20.827,0 0,0"
             style="fill:#5898a7;fill-opacity:1;fill-rule:evenodd;stroke:none"
             id="path38"
             inkscape:connector-curvature="0" /></g><g
           id="g40"
           transform="translate(161.6792,67.9795)"><path
             d="m 0,0 c 0,-13.255 -10.745,-24 -24,-24 -13.255,0 -24,10.745 -24,24 0,13.255 10.745,24 24,24 C -10.745,24 0,13.255 0,0 Z"
             style="fill:none;stroke:#5898a7;stroke-width:9;stroke-linecap:butt;stroke-linejoin:miter;stroke-miterlimit:10;stroke-dasharray:none;stroke-opacity:1"
             id="path42"
             inkscape:connector-curvature="0" /></g></g></g></g></svg>