<?xml version="1.0" encoding="UTF-8" standalone="no"?>
<!-- Created with Inkscape (http://www.inkscape.org/) -->

<svg
   xmlns:dc="http://purl.org/dc/elements/1.1/"
   xmlns:cc="http://creativecommons.org/ns#"
   xmlns:rdf="http://www.w3.org/1999/02/22-rdf-syntax-ns#"
   xmlns:svg="http://www.w3.org/2000/svg"
   xmlns="http://www.w3.org/2000/svg"
   xmlns:sodipodi="http://sodipodi.sourceforge.net/DTD/sodipodi-0.dtd"
   xmlns:inkscape="http://www.inkscape.org/namespaces/inkscape"
   id="svg2"
   version="1.1"
   inkscape:version="0.91 r13725"
   xml:space="preserve"
   width="209.98625"
   height="439.49875"
   viewBox="0 0 209.98625 439.49875"
   sodipodi:docname="tel.svg"><metadata
     id="metadata8"><rdf:RDF><cc:Work
         rdf:about=""><dc:format>image/svg+xml</dc:format><dc:type
           rdf:resource="http://purl.org/dc/dcmitype/StillImage" /><dc:title></dc:title></cc:Work></rdf:RDF></metadata><defs
     id="defs6"><clipPath
       clipPathUnits="userSpaceOnUse"
       id="clipPath16"><path
         d="m 0,351.599 167.989,0 L 167.989,0 0,0 0,351.599 Z"
         id="path18"
         inkscape:connector-curvature="0" /></clipPath></defs><sodipodi:namedview
     pagecolor="#ffffff"
     bordercolor="#666666"
     borderopacity="1"
     objecttolerance="10"
     gridtolerance="10"
     guidetolerance="10"
     inkscape:pageopacity="0"
     inkscape:pageshadow="2"
     inkscape:window-width="697"
     inkscape:window-height="480"
     id="namedview4"
     showgrid="false"
     inkscape:zoom="0.53697536"
     inkscape:cx="104.99313"
     inkscape:cy="219.74937"
     inkscape:window-x="517"
     inkscape:window-y="253"
     inkscape:window-maximized="0"
     inkscape:current-layer="g10" /><g
     id="g10"
     inkscape:groupmode="layer"
     inkscape:label="Vector Smart Object"
     transform="matrix(1.25,0,0,-1.25,0,439.49875)"><g
       id="g12"><g
         id="g14"
         clip-path="url(#clipPath16)"><g
           id="g20"
           transform="translate(82.9893,34.9561)"><path
             d="m 0,0 0,0.022 c 2.491,0 4.983,-0.06 7.471,0.014 4.399,0.13 7.178,2.45 8.145,6.67 1.504,6.561 -0.262,12.387 -4.231,14.247 -1.008,0.473 -2.232,0.654 -3.36,0.668 -5.313,0.067 -10.629,0.142 -15.939,-0.005 -4.53,-0.124 -6.945,-2.773 -7.302,-7.182 C -16.194,2.333 -14.021,0.001 -1.992,0 L 0,0 Z m -48.523,21.659 c -2.492,0 -4.985,0.051 -7.476,-0.011 -5.204,-0.127 -7.962,-2.772 -8.215,-7.888 -0.091,-1.823 -0.088,-3.657 -0.005,-5.482 0.233,-5.121 2.941,-8.009 8.029,-8.222 4.478,-0.188 8.97,-0.106 13.455,-0.039 6.748,0.099 9.527,2.974 9.635,9.816 0.152,9.626 -1.975,11.825 -11.435,11.828 -1.329,0 -2.658,0 -3.988,-0.002 m -0.567,89.75 c 2.824,0 5.648,-0.021 8.472,0.006 3.906,0.038 6.409,2.302 7.066,5.813 0.599,3.195 1.012,6.935 -0.121,9.788 -0.975,2.451 -4.049,5.273 -6.549,5.664 -5.514,0.861 -11.262,0.51 -16.894,0.231 -3.902,-0.194 -6.36,-2.65 -7.009,-6.57 -1.888,-11.395 1.114,-14.941 12.542,-14.941 0.831,0 1.662,0 2.493,0.009 m 49.095,-0.001 c 2.657,0 5.315,0.028 7.972,-0.006 4.149,-0.052 6.717,2.276 7.444,5.994 0.592,3.024 1.018,6.666 -0.155,9.282 -1.159,2.584 -4.184,5.541 -6.803,6.005 -5.316,0.939 -10.921,0.529 -16.385,0.255 -4.623,-0.231 -7.106,-3.134 -7.309,-7.795 -0.446,-10.245 0.106,-14.571 12.746,-13.749 0.826,0.053 1.66,0.006 2.49,0.014 M 49.341,21.659 c -2.494,0 -4.989,0.049 -7.482,-0.011 -5.12,-0.121 -7.665,-2.279 -8.264,-7.314 -0.271,-2.284 -0.181,-4.646 0.031,-6.946 0.435,-4.706 3.247,-7.18 7.874,-7.329 4.983,-0.163 9.977,-0.111 14.963,-0.015 4.702,0.09 7.306,2.75 8.143,7.233 1.902,10.187 -1.549,14.382 -11.773,14.384 -1.164,0 -2.328,0 -3.492,-0.002 m -0.438,89.745 c 2.494,0 4.991,-0.059 7.483,0.012 5.484,0.157 8.107,2.99 8.378,8.948 0.366,8.071 -1.811,12.139 -7.376,12.522 -5.626,0.386 -11.345,0.491 -16.93,-0.125 -2.206,-0.243 -5.066,-2.312 -6.074,-4.326 -4.625,-9.247 0.371,-17.031 10.528,-17.035 1.33,-0.001 2.66,0 3.991,0.004 M -48.978,37.007 c 2.161,0 4.322,0.009 6.483,-0.002 4.213,-0.021 7.489,1.503 8.965,5.699 1.713,4.868 0.389,12.084 -2.699,14.412 -1.009,0.761 -2.359,1.468 -3.57,1.498 -5.963,0.148 -12.014,0.628 -17.857,-0.221 -2.378,-0.347 -5.898,-3.574 -6.167,-5.818 -1.132,-9.434 -1.634,-16.318 12.352,-15.581 0.829,0.044 1.662,0.006 2.493,0.013 m 0.22,59.047 0,-0.029 c -2.326,0 -4.662,0.13 -6.979,-0.025 -5.749,-0.386 -8.333,-3.121 -8.493,-8.853 -0.051,-1.826 -0.076,-3.663 0.056,-5.482 0.303,-4.197 2.541,-7.004 6.759,-7.238 5.784,-0.323 11.608,-0.285 17.397,-0.016 4.046,0.19 6.416,3.004 6.741,6.809 0.745,8.729 0.796,15.574 -12.489,14.842 -0.994,-0.055 -1.994,-0.008 -2.992,-0.008 M 0.396,37.007 c 1.995,0 3.99,-0.003 5.985,0.001 4.175,0.008 7.472,1.378 8.917,5.687 1.713,5.106 0.552,12.098 -2.591,14.428 -1.02,0.756 -2.376,1.451 -3.595,1.481 -5.963,0.149 -12.013,0.629 -17.858,-0.217 -2.366,-0.343 -5.65,-3.456 -6.181,-5.831 -2.591,-11.583 0.956,-15.551 12.829,-15.556 0.831,0 1.662,0 2.494,0.007 M 0.086,74 c 0.003,-0.048 0.006,-0.096 0.008,-0.144 2.982,0.166 6.137,-0.21 8.891,0.668 2.252,0.718 5.307,2.641 5.744,4.548 0.885,3.86 0.944,8.26 -0.069,12.06 -0.536,2.009 -3.91,4.294 -6.235,4.583 -5.398,0.671 -10.952,0.444 -16.416,0.127 -4.636,-0.27 -7.056,-3.08 -7.27,-7.842 -0.532,-11.875 1.448,-13.995 13.353,-14 l 1.994,0 z M 48.731,37.001 c 0,0.033 0,0.066 0,0.099 2.827,0 5.682,-0.253 8.475,0.054 5.228,0.577 7.503,3.892 7.561,10.433 0.063,7.246 -1.842,10.469 -7.236,11.059 -4.442,0.487 -8.959,0.419 -13.441,0.378 C 36.043,58.952 33.418,56.222 33.363,48.18 33.305,39.761 35.911,37.079 44.239,37.003 c 1.497,-0.014 2.995,-0.002 4.492,-0.002 m 0.136,59.054 C 35.078,96.054 31.882,92.966 33.56,81.533 c 0.651,-4.437 3.032,-7.001 7.421,-7.267 4.805,-0.291 9.643,-0.385 14.45,-0.187 6.527,0.271 9.152,3.191 9.334,9.759 0.263,9.447 -2.416,12.196 -11.906,12.216 -1.33,0.003 -2.661,0 -3.992,0.001 M 0.851,265.551 c -19.647,0 -39.293,0.004 -58.94,-0.002 -7.671,-0.002 -9.905,-2.158 -9.908,-9.638 -0.012,-27.972 -0.014,-55.942 0.001,-83.914 0.004,-7.173 2.347,-9.476 9.612,-9.478 39.46,-0.01 78.919,-0.01 118.379,0 7.352,0.002 9.759,2.436 9.764,9.943 0.019,27.805 0.02,55.609 -0.001,83.414 -0.006,7.349 -2.435,9.67 -9.968,9.673 -19.646,0.006 -39.293,0.002 -58.939,0.002 M 49.012,286.4 c 0,6.985 -0.03,13.438 0.007,19.891 0.044,7.771 2.763,10.395 10.623,10.352 7.33,-0.039 10.06,-2.819 10.104,-10.391 0.037,-6.469 0.007,-12.939 0.007,-19.327 12.083,-1.963 15.239,-5.704 15.24,-17.753 0.008,-95.641 0.009,-191.281 0,-286.922 -0.002,-12.712 -4.391,-17.173 -17.059,-17.183 -44.655,-0.032 -89.309,-0.03 -133.964,0 -12.225,0.008 -16.958,4.775 -16.958,16.851 -0.002,95.975 -0.002,191.948 0.001,287.922 0,11.835 4.766,16.559 16.675,16.559 36.157,10e-4 72.314,10e-4 108.471,10e-4 l 6.853,0 z"
             style="fill:#1b5874;fill-opacity:1;fill-rule:evenodd;stroke:none"
             id="path22"
             inkscape:connector-curvature="0" /></g></g></g></g></svg>