<?xml version="1.0" encoding="UTF-8" standalone="no"?>
<svg
   xmlns:dc="http://purl.org/dc/elements/1.1/"
   xmlns:cc="http://creativecommons.org/ns#"
   xmlns:rdf="http://www.w3.org/1999/02/22-rdf-syntax-ns#"
   xmlns:svg="http://www.w3.org/2000/svg"
   xmlns="http://www.w3.org/2000/svg"
   version="1.1"
   width="10"
   viewBox="0 0 10 7.5"
   height="7.5"
   xml:space="preserve"
   id="svg2"><metadata
     id="metadata8"><rdf:RDF><cc:Work
         rdf:about=""><dc:format>image/svg+xml</dc:format><dc:type
           rdf:resource="http://purl.org/dc/dcmitype/StillImage" /><dc:title></dc:title></cc:Work></rdf:RDF></metadata><defs
     id="defs6"><clipPath
       clipPathUnits="userSpaceOnUse"
       id="clipPath16"><path
         d="m0 0h7.92v6h-7.92v-6z"
         id="path18" /></clipPath></defs><g
     transform="matrix(1.25,0,0,-1.25,0,7.5)"
     id="g10"><g
       id="g12"><g
         clip-path="url(#clipPath16)"
         id="g14"><g
           transform="translate(7.602,3.602)"
           id="g20"><path
             fill="#686460"
             d="m0 0h-7.204c-0.218 0-0.398-0.18-0.398-0.403 0-0.219 0.18-0.398 0.398-0.398h7.204c0.218 0 0.398 0.179 0.398 0.398 0 0.223-0.18 0.403-0.398 0.403"
             id="path22" /></g><g
           transform="translate(.398 5.199)"
           id="g24"><path
             fill="#686460"
             d="m0 0h7.204c0.218 0 0.398 0.18 0.398 0.403 0 0.218-0.18 0.398-0.398 0.398h-7.204c-0.218 0-0.398-0.18-0.398-0.398 0-0.223 0.18-0.403 0.398-0.403"
             id="path26" /></g><g
           transform="translate(7.602,1.199)"
           id="g28"><path
             fill="#686460"
             d="m0 0h-7.204c-0.218 0-0.398-0.179-0.398-0.398 0-0.223 0.18-0.403 0.398-0.403h7.204c0.218 0 0.398 0.18 0.398 0.403 0 0.219-0.18 0.398-0.398 0.398"
             id="path30" /></g></g></g></g></svg>