<?xml version="1.0" encoding="UTF-8" standalone="no"?>
<!-- Created with Inkscape (http://www.inkscape.org/) -->

<svg
   xmlns:dc="http://purl.org/dc/elements/1.1/"
   xmlns:cc="http://creativecommons.org/ns#"
   xmlns:rdf="http://www.w3.org/1999/02/22-rdf-syntax-ns#"
   xmlns:svg="http://www.w3.org/2000/svg"
   xmlns="http://www.w3.org/2000/svg"
   xmlns:sodipodi="http://sodipodi.sourceforge.net/DTD/sodipodi-0.dtd"
   xmlns:inkscape="http://www.inkscape.org/namespaces/inkscape"
   id="svg2"
   version="1.1"
   inkscape:version="0.91 r13725"
   xml:space="preserve"
   width="234.29875"
   height="314.60999"
   viewBox="0 0 234.29875 314.60999"
   sodipodi:docname="pin.svg"><metadata
     id="metadata8"><rdf:RDF><cc:Work
         rdf:about=""><dc:format>image/svg+xml</dc:format><dc:type
           rdf:resource="http://purl.org/dc/dcmitype/StillImage" /><dc:title></dc:title></cc:Work></rdf:RDF></metadata><defs
     id="defs6"><clipPath
       clipPathUnits="userSpaceOnUse"
       id="clipPath16"><path
         d="m 0,251.688 187.439,0 L 187.439,0 0,0 0,251.688 Z"
         id="path18"
         inkscape:connector-curvature="0" /></clipPath></defs><sodipodi:namedview
     pagecolor="#ffffff"
     bordercolor="#666666"
     borderopacity="1"
     objecttolerance="10"
     gridtolerance="10"
     guidetolerance="10"
     inkscape:pageopacity="0"
     inkscape:pageshadow="2"
     inkscape:window-width="697"
     inkscape:window-height="480"
     id="namedview4"
     showgrid="false"
     inkscape:zoom="0.75013512"
     inkscape:cx="117.14938"
     inkscape:cy="157.30499"
     inkscape:window-x="539"
     inkscape:window-y="255"
     inkscape:window-maximized="0"
     inkscape:current-layer="g10" /><g
     id="g10"
     inkscape:groupmode="layer"
     inkscape:label="Vector Smart Object1"
     transform="matrix(1.25,0,0,-1.25,0,314.61)"><g
       id="g12"><g
         id="g14"
         clip-path="url(#clipPath16)"><g
           id="g20"
           transform="translate(57.9053,158.2432)"><path
             d="M 0,0 C 0.008,-19.742 16.095,-35.983 35.773,-36.115 55.439,-36.246 72.12,-19.533 71.998,0.182 71.877,19.809 55.569,35.901 35.818,35.887 15.987,35.872 -0.008,19.846 0,0 m 35.801,-158.243 c -25.929,35.347 -52.595,69.68 -77.065,105.513 -39.083,57.233 -5.382,132.698 60.044,144.591 53.726,9.767 103.581,-26.674 110.009,-80.665 2.824,-23.722 -2.301,-46.013 -16.622,-65.621 -24.63,-33.721 -49.373,-67.362 -74.075,-101.031 -0.582,-0.793 -1.249,-1.524 -2.291,-2.787"
             style="fill:#f4331a;fill-opacity:1;fill-rule:evenodd;stroke:none"
             id="path22"
             inkscape:connector-curvature="0" /></g></g></g></g></svg>