<?xml version="1.0" encoding="UTF-8" standalone="no"?>
<!-- Created with Inkscape (http://www.inkscape.org/) -->

<svg
   xmlns:dc="http://purl.org/dc/elements/1.1/"
   xmlns:cc="http://creativecommons.org/ns#"
   xmlns:rdf="http://www.w3.org/1999/02/22-rdf-syntax-ns#"
   xmlns:svg="http://www.w3.org/2000/svg"
   xmlns="http://www.w3.org/2000/svg"
   xmlns:sodipodi="http://sodipodi.sourceforge.net/DTD/sodipodi-0.dtd"
   xmlns:inkscape="http://www.inkscape.org/namespaces/inkscape"
   id="svg2"
   version="1.1"
   inkscape:version="0.91 r13725"
   xml:space="preserve"
   width="405.82001"
   height="405.78751"
   viewBox="0 0 405.82001 405.78751"
   sodipodi:docname="1.svg"><metadata
     id="metadata8"><rdf:RDF><cc:Work
         rdf:about=""><dc:format>image/svg+xml</dc:format><dc:type
           rdf:resource="http://purl.org/dc/dcmitype/StillImage" /><dc:title></dc:title></cc:Work></rdf:RDF></metadata><defs
     id="defs6"><clipPath
       clipPathUnits="userSpaceOnUse"
       id="clipPath16"><path
         d="m 0,324.63 324.656,0 L 324.656,0 0,0 0,324.63 Z"
         id="path18"
         inkscape:connector-curvature="0" /></clipPath></defs><sodipodi:namedview
     pagecolor="#ffffff"
     bordercolor="#666666"
     borderopacity="1"
     objecttolerance="10"
     gridtolerance="10"
     guidetolerance="10"
     inkscape:pageopacity="0"
     inkscape:pageshadow="2"
     inkscape:window-width="1920"
     inkscape:window-height="1057"
     id="namedview4"
     showgrid="false"
     inkscape:zoom="0.58158518"
     inkscape:cx="202.91"
     inkscape:cy="202.89375"
     inkscape:window-x="-8"
     inkscape:window-y="-8"
     inkscape:window-maximized="1"
     inkscape:current-layer="g10" /><g
     id="g10"
     inkscape:groupmode="layer"
     inkscape:label="Vector Smart Object4"
     transform="matrix(1.25,0,0,-1.25,0,405.7875)"><g
       id="g12"><g
         id="g14"
         clip-path="url(#clipPath16)"><g
           id="g20"
           transform="translate(213.0752,135.5527)"><path
             d="m 0,0 c 0.161,-4.668 1.838,-8.428 4.884,-11.498 2.516,-2.537 5.223,-2.772 7.246,0.158 2.217,3.213 4.099,7.016 4.817,10.811 C 17.803,3.99 13.146,8.199 8.486,8.174 3.92,8.148 0.072,4.311 0,0 m -101.55,-2.688 c 0,6.948 -3.923,10.905 -8.63,10.862 -4.536,-0.043 -8.548,-3.94 -8.428,-8.506 0.112,-4.326 1.804,-8.106 4.882,-11.191 2.298,-2.305 5.089,-2.688 7.025,-0.081 2.403,3.239 4.081,7.014 5.151,8.916 m 53.108,-17.035 c 0.008,-0.164 0.018,-0.33 0.027,-0.496 3.992,0.194 9.027,-1.017 11.693,0.961 2.885,2.143 3.576,7.254 5.179,11.09 0.281,0.672 0.38,1.428 0.512,2.154 1.724,9.477 -3.286,18.926 -12.027,22.698 -8.623,3.72 -18.783,0.873 -24.343,-6.827 -5.548,-7.681 -4.571,-22.892 2.027,-29.714 0.617,-0.637 1.957,-0.86 2.939,-0.811 4.668,0.227 9.329,0.615 13.993,0.945 m -77.462,10.586 c -2.918,10.908 -1.166,18.014 5.528,22.848 5.916,4.269 13.784,4.594 19.78,0.455 8.404,-5.803 9.331,-13.898 6.282,-23.258 8.365,-2.967 14.013,-8.521 16.432,-17.547 1.475,0.832 2.804,1.582 3.955,2.231 -1.793,4.99 -3.947,9.695 -5.173,14.631 -4.528,18.226 6.965,34.66 25.465,36.806 18.637,2.162 35.034,-15.574 31.311,-34.158 -1.054,-5.258 -3.093,-10.32 -4.782,-15.801 0.732,-0.369 2.002,-1.011 3.229,-1.631 2.308,3.305 4.137,6.885 6.859,9.553 2.646,2.592 6.207,4.252 9.595,6.471 -2.846,8.42 -2.088,16.457 5.95,22.394 5.797,4.284 13.469,4.428 19.446,0.331 8.533,-5.848 9.484,-14.057 6.293,-23.325 7.668,-3.064 13.289,-7.955 15.481,-15.925 0.774,-2.817 1.072,-5.817 1.172,-8.749 0.098,-2.925 -0.853,-5.525 -4.493,-5.505 -3.63,0.019 -4.318,2.418 -4.359,5.511 -0.107,8.078 -3.265,13.338 -9.611,15.461 -1.519,0.508 -3.898,0.149 -5.225,-0.765 -5.875,-4.047 -11.485,-4.379 -17.022,-0.018 -2.195,1.731 -4.244,2.115 -6.33,0.717 -2.496,-1.674 -5.148,-3.469 -6.896,-5.83 -3.057,-4.135 -2.707,-5.614 0.558,-9.588 5.845,-7.119 8.874,-15.285 9.03,-24.488 0.079,-4.692 0.069,-9.387 0,-14.079 -0.05,-3.535 -1.858,-5.63 -4.675,-5.369 -3.223,0.301 -4.156,2.436 -4.208,5.432 -0.114,6.527 0.204,13.146 -0.778,19.557 -2.062,13.474 -14.475,23.718 -28.1,23.761 -6.772,0.02 -13.636,0.301 -20.298,-0.652 -13.753,-1.967 -23.971,-14.244 -24.189,-28.131 -0.075,-4.814 0.021,-9.633 -0.024,-14.449 -0.033,-3.639 -1.668,-5.592 -4.5,-5.545 -2.837,0.049 -4.482,1.955 -4.318,5.678 0.35,7.978 0.483,16.008 1.577,23.896 0.516,3.727 2.482,7.598 4.792,10.645 3.177,4.193 2.115,8.008 0.414,11.961 -1.937,4.496 -5.521,7.218 -10.381,7.922 -0.983,0.142 -2.261,-0.573 -3.159,-1.227 -6.151,-4.484 -11.439,-4.404 -17.685,-0.053 -1.237,0.864 -3.507,1.201 -4.913,0.698 -5.889,-2.106 -9.072,-6.526 -9.576,-12.793 -0.089,-1.106 10e-4,-2.225 -0.079,-3.332 -0.209,-2.909 -1.273,-5.088 -4.68,-4.934 -3.193,0.142 -4.022,2.262 -4.164,5.035 -0.6,11.768 4.574,19.785 16.469,25.158"
             style="fill:#fff;fill-opacity:1;fill-rule:evenodd;stroke:none"
             id="path22"
             inkscape:connector-curvature="0" /></g><g
           id="g24"
           transform="translate(161.5908,184.4922)"><path
             d="m 0,0 c 1.521,4.027 2.743,7.182 3.901,10.357 0.957,2.627 2.649,3.914 5.573,3.848 5.555,-0.131 11.116,-0.066 16.674,-0.029 7.425,0.049 11.458,4.074 11.472,11.459 0.022,12.228 0.024,24.459 -0.002,36.687 -0.014,7.231 -3.96,11.147 -11.231,11.155 -18.283,0.017 -36.565,0.017 -54.847,0 -7.707,-0.008 -11.549,-3.854 -11.568,-11.602 -0.031,-11.982 -0.032,-23.963 10e-4,-35.945 0.02,-7.662 4.021,-11.703 11.604,-11.754 6.052,-0.039 12.107,-0.092 18.157,0.027 2.873,0.055 4.622,-1.119 5.687,-3.728 C -3.252,7.223 -1.772,4.035 0,0 m 46.511,43.918 c 0,-6.42 0.033,-12.84 -0.008,-19.26 C 46.435,13.754 38.223,5.451 27.347,5.297 22.903,5.232 18.447,5.451 14.021,5.174 12.839,5.1 11.167,3.912 10.704,2.82 8.597,-2.156 7.068,-7.387 4.831,-12.297 4.059,-13.992 1.917,-15.926 0.246,-16.08 c -1.392,-0.129 -3.609,1.881 -4.417,3.473 -2.502,4.927 -4.606,10.068 -6.653,15.211 -0.807,2.025 -1.855,2.816 -4.072,2.734 -4.685,-0.172 -9.38,-0.07 -14.072,-0.049 -11.601,0.053 -19.895,8.227 -19.942,19.744 -0.051,12.594 -0.051,25.186 0,37.778 0.047,11.464 8.143,19.533 19.578,19.546 18.765,0.026 37.53,0.024 56.295,0 11.48,-0.013 19.509,-8.062 19.544,-19.55 0.019,-6.297 0.004,-12.594 0.004,-18.889"
             style="fill:#fff;fill-opacity:1;fill-rule:evenodd;stroke:none"
             id="path26"
             inkscape:connector-curvature="0" /></g><g
           id="g28"
           transform="translate(254.2822,37.5957)"><path
             d="m 0,0 c -2.724,-1.964 -6.173,-3.08 -11.329,-6.89 -44.464,-30.411 -113.883,-31.548 -161.119,-0.274 -9.107,4.783 -9.815,6.162 -11.374,7.356 -39.445,30.189 -61.095,69.869 -62.878,119.796 -1.567,43.874 13.359,81.847 43.868,112.96 32.812,33.463 73.256,48.955 120.351,46.504 67.578,-3.517 127.562,-53.6 142.419,-122.828 C 72.415,98.487 48.301,34.829 0,0 m -88.36,286.997 c -91.634,1.907 -165.619,-70.88 -165.921,-162.128 -0.294,-88.608 72.153,-161.566 160.199,-162.456 C -3.758,-38.499 69.664,33.945 70.374,124.68 70.165,212.246 0.947,285.139 -88.36,286.997"
             style="fill:#373535;fill-opacity:0;fill-rule:evenodd;stroke:none"
             id="path30"
             inkscape:connector-curvature="0" /></g></g></g></g></svg>