<?xml version="1.0" encoding="UTF-8" standalone="no"?>
<!-- Created with Inkscape (http://www.inkscape.org/) -->

<svg
   xmlns:dc="http://purl.org/dc/elements/1.1/"
   xmlns:cc="http://creativecommons.org/ns#"
   xmlns:rdf="http://www.w3.org/1999/02/22-rdf-syntax-ns#"
   xmlns:svg="http://www.w3.org/2000/svg"
   xmlns="http://www.w3.org/2000/svg"
   xmlns:sodipodi="http://sodipodi.sourceforge.net/DTD/sodipodi-0.dtd"
   xmlns:inkscape="http://www.inkscape.org/namespaces/inkscape"
   id="svg2"
   version="1.1"
   inkscape:version="0.91 r13725"
   xml:space="preserve"
   width="405.82001"
   height="405.78751"
   viewBox="0 0 405.82001 405.78751"
   sodipodi:docname="2.svg"><metadata
     id="metadata8"><rdf:RDF><cc:Work
         rdf:about=""><dc:format>image/svg+xml</dc:format><dc:type
           rdf:resource="http://purl.org/dc/dcmitype/StillImage" /><dc:title></dc:title></cc:Work></rdf:RDF></metadata><defs
     id="defs6"><clipPath
       clipPathUnits="userSpaceOnUse"
       id="clipPath16"><path
         d="m 0,324.63 324.656,0 L 324.656,0 0,0 0,324.63 Z"
         id="path18"
         inkscape:connector-curvature="0" /></clipPath></defs><sodipodi:namedview
     pagecolor="#ffffff"
     bordercolor="#666666"
     borderopacity="1"
     objecttolerance="10"
     gridtolerance="10"
     guidetolerance="10"
     inkscape:pageopacity="0"
     inkscape:pageshadow="2"
     inkscape:window-width="765"
     inkscape:window-height="480"
     id="namedview4"
     showgrid="false"
     inkscape:zoom="0.58158518"
     inkscape:cx="202.91"
     inkscape:cy="202.89375"
     inkscape:window-x="0"
     inkscape:window-y="0"
     inkscape:window-maximized="0"
     inkscape:current-layer="g10" /><g
     id="g10"
     inkscape:groupmode="layer"
     inkscape:label="Vector Smart Object5"
     transform="matrix(1.25,0,0,-1.25,0,405.7875)"><g
       id="g12"><g
         id="g14"
         clip-path="url(#clipPath16)"><g
           id="g20"
           transform="translate(157.4766,118.0752)"><path
             d="M 0,0 C 0.169,-0.202 0.338,-0.405 0.506,-0.609 8.51,3.486 16.516,7.582 24.335,11.584 20.136,15.768 16.198,19.695 12.145,23.738 8.167,15.962 4.083,7.981 0,0 m 81.909,93.009 c 3.932,-3.937 7.861,-7.871 11.499,-11.513 3.384,3.386 7.027,7.031 10.379,10.386 -3.707,3.784 -7.6,7.759 -11.369,11.61 -3.554,-3.547 -7.201,-7.184 -10.509,-10.483 m -107.998,15.546 51.18,0 0,18.672 -51.18,0 0,-18.672 z M 75.61,86.924 C 56.505,67.83 37.391,48.725 18.676,30.019 22.633,26.097 26.65,22.113 30.17,18.626 48.977,37.433 68.054,56.511 87.035,75.491 83.444,79.084 79.561,82.97 75.61,86.924 M 57.301,33.581 C 56.23,32.595 55.46,31.929 54.741,31.21 46.706,23.187 38.69,15.146 30.637,7.142 29.672,6.182 28.626,5.203 27.434,4.59 16.144,-1.225 4.807,-6.944 -6.495,-12.731 c -1.929,-0.988 -3.758,-1.567 -5.516,0.207 -1.765,1.782 -1.124,3.598 -0.134,5.519 4.9,9.497 9.895,18.95 14.549,28.572 2.255,4.664 5.184,8.616 8.858,12.244 14.874,14.689 29.624,29.505 44.322,44.37 1.035,1.047 1.784,2.864 1.809,4.34 0.162,9.335 0.087,18.676 0.074,28.013 -10e-4,0.921 -0.11,1.84 -0.174,2.836 l -24.37,0 c 0,-2.657 0.04,-5.182 -0.009,-7.705 -0.074,-3.737 -1.287,-4.953 -5,-4.956 -18.996,-0.016 -37.992,-0.016 -56.987,0.002 -3.503,0.002 -4.758,1.252 -4.842,4.771 -0.062,2.606 -0.013,5.213 -0.013,7.862 l -24.308,0 0,-152.081 115.537,0 0,72.318 z m -91.229,87.564 c 0,3.248 -0.039,6.094 0.01,8.939 0.06,3.506 1.355,4.897 4.747,4.904 19.108,0.03 38.218,0.03 57.327,0 3.385,-0.004 4.691,-1.402 4.756,-4.908 0.054,-2.845 0.011,-5.689 0.011,-8.935 l 14.882,0 c 4.246,0 8.493,0.037 12.738,-0.015 3.355,-0.04 4.536,-1.255 4.544,-4.657 0.023,-9.334 0.008,-18.665 0.008,-28.559 1.009,0.857 1.709,1.375 2.32,1.983 6.992,6.972 13.965,13.962 20.955,20.937 3.151,3.141 4.896,3.172 8.024,0.071 5.051,-5.009 10.076,-10.042 15.089,-15.088 3.128,-3.149 3.1,-4.754 -0.113,-7.969 C 96.661,73.131 81.968,58.396 67.195,43.742 c -1.571,-1.556 -2.15,-3.105 -2.144,-5.283 0.068,-26.541 0.047,-53.082 0.043,-79.62 0,-4.46 -0.904,-5.362 -5.406,-5.364 -40.128,-0.006 -80.256,-0.006 -120.386,0.002 -4.53,0 -5.401,0.872 -5.401,5.362 -0.003,52.231 -0.003,104.461 -10e-4,156.693 0,4.691 0.891,5.605 5.51,5.61 8.699,0.009 17.396,0.003 26.662,0.003"
             style="fill:#fff;fill-opacity:1;fill-rule:evenodd;stroke:none"
             id="path22"
             inkscape:connector-curvature="0" /></g><g
           id="g24"
           transform="translate(157.2891,208.4902)"><path
             d="m 0,0 c 13.267,0 26.533,0 39.8,-0.003 0.85,0 1.709,0.075 2.545,-0.036 2.199,-0.292 3.54,-1.672 3.544,-3.812 0.004,-2.137 -1.278,-3.534 -3.549,-3.724 -0.842,-0.072 -1.695,-0.056 -2.544,-0.058 -26.428,-0.001 -52.855,-0.001 -79.283,0.002 -0.954,0 -2.157,-0.302 -2.81,0.156 -1.251,0.875 -3.066,2.217 -3.037,3.323 0.035,1.372 1.553,2.867 2.746,3.965 0.533,0.491 1.834,0.18 2.787,0.18 C -26.534,0.002 -13.267,0 0,0"
             style="fill:#fff;fill-opacity:1;fill-rule:evenodd;stroke:none"
             id="path26"
             inkscape:connector-curvature="0" /></g><g
           id="g28"
           transform="translate(157.6191,193.9941)"><path
             d="m 0,0 c 13.16,0 26.321,0 39.481,-0.004 0.955,0 2.117,0.298 2.819,-0.135 1.23,-0.757 2.865,-1.864 3.053,-3.028 0.189,-1.178 -0.904,-2.915 -1.946,-3.817 -0.798,-0.693 -2.391,-0.626 -3.631,-0.626 -26.64,-0.03 -53.281,-0.028 -79.921,-0.01 -1.048,0 -2.438,-0.217 -3.07,0.344 -1.13,1.004 -2.556,2.585 -2.457,3.809 0.1,1.211 1.804,2.466 3.06,3.333 0.654,0.453 1.856,0.13 2.81,0.13 C -26.534,0 -13.267,0 0,0"
             style="fill:#fff;fill-opacity:1;fill-rule:evenodd;stroke:none"
             id="path30"
             inkscape:connector-curvature="0" /></g><path
           d="m 119.929,159.118 10.781,0 0,11.01 -10.781,0 0,-11.01 z m 18.644,5.174 c 0,-2.862 0.036,-5.722 -0.01,-8.582 -0.05,-3.219 -1.222,-4.424 -4.379,-4.444 -5.827,-0.037 -11.655,-0.031 -17.483,-0.004 -3.26,0.017 -4.539,1.125 -4.585,4.273 -0.091,6.04 -0.046,12.08 -0.017,18.119 0.012,2.693 1.495,4.184 4.123,4.223 6.038,0.09 12.079,0.08 18.118,0.009 2.764,-0.035 4.302,-1.439 4.246,-4.375 -0.058,-3.073 -0.013,-6.146 -0.013,-9.219"
           style="fill:#fff;fill-opacity:1;fill-rule:evenodd;stroke:none"
           id="path32"
           inkscape:connector-curvature="0" /><path
           d="m 119.897,125.267 10.918,0 0,10.816 -10.918,0 0,-10.816 z m 5.504,-7.856 c -2.964,0 -5.929,0.064 -8.89,-0.017 -2.903,-0.081 -4.391,1.264 -4.407,4.132 -0.036,6.035 -0.024,12.066 -0.011,18.1 0.005,2.868 1.495,4.267 4.341,4.267 5.928,-0.003 11.856,0.055 17.782,-0.026 3.251,-0.042 4.326,-1.217 4.347,-4.489 0.038,-5.82 0.038,-11.641 0,-17.463 -0.022,-3.42 -1.109,-4.463 -4.589,-4.498 -2.857,-0.031 -5.715,-0.007 -8.573,-0.006"
           style="fill:#fff;fill-opacity:1;fill-rule:evenodd;stroke:none"
           id="path34"
           inkscape:connector-curvature="0" /><g
           id="g36"
           transform="translate(254.2822,37.5957)"><path
             d="m 0,0 c -2.724,-1.964 -6.173,-3.08 -11.329,-6.89 -44.464,-30.411 -113.883,-31.548 -161.119,-0.274 -9.107,4.783 -9.815,6.162 -11.374,7.356 -39.445,30.189 -61.095,69.869 -62.878,119.796 -1.567,43.874 13.359,81.847 43.868,112.96 32.812,33.463 73.256,48.955 120.351,46.504 67.578,-3.517 127.562,-53.6 142.419,-122.828 C 72.415,98.487 48.301,34.829 0,0 m -88.36,286.997 c -91.634,1.907 -165.619,-70.88 -165.921,-162.128 -0.294,-88.608 72.153,-161.566 160.199,-162.456 C -3.758,-38.499 69.664,33.945 70.374,124.68 70.165,212.246 0.947,285.139 -88.36,286.997"
             style="fill:#373535;fill-opacity:0;fill-rule:evenodd;stroke:none"
             id="path38"
             inkscape:connector-curvature="0" /></g></g></g></g></svg>