<?xml version="1.0" encoding="UTF-8" standalone="no"?>
<!-- Created with Inkscape (http://www.inkscape.org/) -->

<svg
   xmlns:dc="http://purl.org/dc/elements/1.1/"
   xmlns:cc="http://creativecommons.org/ns#"
   xmlns:rdf="http://www.w3.org/1999/02/22-rdf-syntax-ns#"
   xmlns:svg="http://www.w3.org/2000/svg"
   xmlns="http://www.w3.org/2000/svg"
   xmlns:sodipodi="http://sodipodi.sourceforge.net/DTD/sodipodi-0.dtd"
   xmlns:inkscape="http://www.inkscape.org/namespaces/inkscape"
   id="svg2"
   version="1.1"
   inkscape:version="0.91 r13725"
   xml:space="preserve"
   width="405.82001"
   height="405.78751"
   viewBox="0 0 405.82001 405.78751"
   sodipodi:docname="3.svg"><metadata
     id="metadata8"><rdf:RDF><cc:Work
         rdf:about=""><dc:format>image/svg+xml</dc:format><dc:type
           rdf:resource="http://purl.org/dc/dcmitype/StillImage" /><dc:title></dc:title></cc:Work></rdf:RDF></metadata><defs
     id="defs6"><clipPath
       clipPathUnits="userSpaceOnUse"
       id="clipPath16"><path
         d="m 0,324.63 324.656,0 L 324.656,0 0,0 0,324.63 Z"
         id="path18"
         inkscape:connector-curvature="0" /></clipPath><clipPath
       clipPathUnits="userSpaceOnUse"
       id="clipPath36"><path
         d="m 202.945,239.565 2.235,-137.582 -101.79,0 0,-29.503 134.76,0 0,167.085 -35.205,0 z"
         id="path38"
         inkscape:connector-curvature="0" /></clipPath><clipPath
       clipPathUnits="userSpaceOnUse"
       id="clipPath48"><path
         d="m 0,324.63 324.656,0 L 324.656,0 0,0 0,324.63 Z"
         id="path50"
         inkscape:connector-curvature="0" /></clipPath></defs><sodipodi:namedview
     pagecolor="#ffffff"
     bordercolor="#666666"
     borderopacity="1"
     objecttolerance="10"
     gridtolerance="10"
     guidetolerance="10"
     inkscape:pageopacity="0"
     inkscape:pageshadow="2"
     inkscape:window-width="765"
     inkscape:window-height="480"
     id="namedview4"
     showgrid="false"
     inkscape:zoom="0.58158518"
     inkscape:cx="202.91"
     inkscape:cy="202.89375"
     inkscape:window-x="0"
     inkscape:window-y="0"
     inkscape:window-maximized="0"
     inkscape:current-layer="g10" /><g
     id="g10"
     inkscape:groupmode="layer"
     inkscape:label="Vector Smart Object6"
     transform="matrix(1.25,0,0,-1.25,0,405.7875)"><g
       id="g12"><g
         id="g14"
         clip-path="url(#clipPath16)"><g
           id="g20"
           transform="translate(148.9556,139.9795)"><path
             d="M 0,0 C 0.22,-0.073 0.439,-0.146 0.659,-0.219 1.626,1.243 2.594,2.705 4.019,4.857 2.071,4.507 0.978,4.311 0,4.134 L 0,0 Z m -7.142,1.74 c -2.669,-1.665 -4.542,-3.34 -4.996,-6.109 -0.275,-1.682 0.543,-2.785 2.283,-2.619 1.483,0.14 3.701,-0.333 3.6,2.241 -0.077,1.988 -0.525,3.96 -0.887,6.487 m -0.377,14.725 -9.054,0 0,6.661 9.057,0 c 0.13,2.145 0.246,4.042 0.386,6.328 2.519,-0.138 4.952,-0.27 7.478,-0.409 l 0,-5.588 c 5.31,0.605 10.61,1.207 16.186,1.84 0.226,-2.211 0.455,-4.447 0.721,-7.049 -5.898,-0.529 -11.516,-1.035 -17.353,-1.56 l 0,-6.403 c 2.452,0.768 4.626,1.379 6.747,2.139 1.23,0.441 5.955,-0.991 6.83,-2.086 0.418,-0.525 1.125,-0.861 1.756,-1.171 4.992,-2.441 7.65,-6.414 7.604,-11.979 -0.047,-5.629 -2.589,-9.784 -7.846,-12.088 -1.186,-0.521 -2.388,-1.086 -3.641,-1.361 -6.433,-1.407 -5.241,-2.106 -9.196,4.193 1.571,0.385 3.119,0.594 4.528,1.154 1.963,0.782 4.068,1.521 5.679,2.817 4.129,3.322 3.429,8.768 -1.223,11.146 -2.405,-3.152 -4.71,-6.384 -7.24,-9.43 -3.398,-4.091 -7.89,-6.484 -13.092,-7.338 -7.728,-1.267 -11.889,3.748 -9.5,11.288 1.435,4.532 4.552,7.724 8.676,9.718 2.413,1.166 3.034,2.555 2.541,4.987 -0.251,1.242 -0.044,2.574 -0.044,4.191"
             style="fill:#fff;fill-opacity:1;fill-rule:evenodd;stroke:none"
             id="path22"
             inkscape:connector-curvature="0" /></g><g
           id="g24"
           transform="translate(151.0415,216.8232)"><path
             d="m 0,0 c -0.196,-0.004 -0.392,-0.008 -0.588,-0.012 -1.689,-4.792 -3.379,-9.584 -5.13,-14.554 l 10.728,0 C 3.285,-9.55 1.643,-4.774 0,0 m 20.118,-31.098 c -2.96,0 -5.627,-0.068 -8.284,0.059 -0.521,0.025 -1.154,0.719 -1.472,1.26 -0.464,0.787 -0.706,1.708 -1.012,2.583 -1.945,5.571 -1.942,5.572 -7.942,5.572 -2.513,0 -5.032,-0.102 -7.538,0.034 -1.586,0.086 -2.453,-0.49 -2.816,-1.974 -0.044,-0.179 -0.109,-0.355 -0.17,-0.53 -2.818,-8.032 -2.822,-8.036 -11.699,-6.725 1.82,4.79 3.625,9.522 5.417,14.257 3.215,8.5 6.446,16.995 9.61,25.513 0.542,1.458 1.2,2.145 2.935,2.146 7.354,0.001 7.347,0.071 9.941,-6.851 4.035,-10.767 8.084,-21.53 12.113,-32.302 0.318,-0.846 0.527,-1.735 0.917,-3.042"
             style="fill:#fff;fill-opacity:1;fill-rule:evenodd;stroke:none"
             id="path26"
             inkscape:connector-curvature="0" /></g><g
           id="g28"
           transform="translate(200.2822,172.2588)"><path
             d="m 0,0 0.082,42.934 c 0,0 0.075,16.383 0.064,24.575 -0.001,0.806 -0.097,1.612 -0.153,2.487 l -21.378,0 -58.646,-0.023 -21.326,0 0,-133.416 L 0,-63.443 0,0 Z m -80.033,76.816 58.647,0 13.055,0 c 3.726,0 7.452,0.033 11.177,-0.011 C 5.788,76.77 6.823,75.702 6.831,72.718 6.852,64.531 6.837,47.664 6.837,47.664 L 6.799,4.278 c 0,0 0.041,-46.566 0.038,-69.848 -10e-4,-3.912 -0.793,-4.706 -4.742,-4.706 -35.204,-0.003 -70.408,-0.003 -105.611,0 -3.974,0 -4.739,0.766 -4.739,4.706 -0.002,45.82 -0.002,91.641 0,137.463 0,4.116 0.781,4.917 4.833,4.92 7.63,0.009 23.389,0.003 23.389,0.003"
             style="fill:#fff;fill-opacity:1;fill-rule:evenodd;stroke:none"
             id="path30"
             inkscape:connector-curvature="0" /></g></g></g><g
       id="g32"><g
         id="g34"
         clip-path="url(#clipPath36)"><g
           id="g40"
           transform="translate(223.8423,154.1865)"><path
             d="m 0,0 0.081,42.933 c 0,0 0.076,16.383 0.065,24.576 -0.001,0.805 -0.097,1.612 -0.153,2.487 l -21.379,0 -58.646,-0.023 -21.326,0 0,-133.417 L 0,-63.444 0,0 Z m -80.033,76.816 58.647,0 13.055,0 C -4.605,76.815 -0.88,76.849 2.845,76.805 5.788,76.77 6.823,75.702 6.831,72.718 6.851,64.53 6.837,47.664 6.837,47.664 L 6.799,4.277 c 0,0 0.041,-46.565 0.037,-69.848 0,-3.912 -0.792,-4.705 -4.741,-4.705 -35.204,-0.003 -70.408,-0.003 -105.612,0 -3.974,0 -4.738,0.767 -4.738,4.705 -0.003,45.821 -0.003,91.642 -0.001,137.464 0,4.116 0.781,4.917 4.834,4.92 7.63,0.009 23.389,0.003 23.389,0.003"
             style="fill:#fff;fill-opacity:1;fill-rule:evenodd;stroke:none"
             id="path42"
             inkscape:connector-curvature="0" /></g></g></g><g
       id="g44"><g
         id="g46"
         clip-path="url(#clipPath48)"><g
           id="g52"
           transform="translate(254.2822,37.5957)"><path
             d="m 0,0 c -2.724,-1.964 -6.173,-3.08 -11.329,-6.89 -44.464,-30.411 -113.883,-31.548 -161.119,-0.274 -9.107,4.783 -9.815,6.162 -11.374,7.356 -39.445,30.189 -61.095,69.869 -62.878,119.796 -1.567,43.874 13.359,81.847 43.868,112.96 32.812,33.463 73.256,48.955 120.351,46.504 67.578,-3.517 127.562,-53.6 142.419,-122.828 C 72.415,98.487 48.301,34.829 0,0 m -88.36,286.997 c -91.634,1.907 -165.619,-70.88 -165.921,-162.128 -0.294,-88.608 72.153,-161.566 160.199,-162.456 C -3.758,-38.499 69.664,33.945 70.374,124.68 70.165,212.246 0.947,285.139 -88.36,286.997"
             style="fill:#fff;fill-opacity:0;fill-rule:evenodd;stroke:none"
             id="path54"
             inkscape:connector-curvature="0" /></g></g></g></g></svg>